<svg xmlns="http://www.w3.org/2000/svg" data-name="Layer 1" viewBox="24.884 69.67 250.314 160.68" width="250.31399536132812" height="160.67999267578125"><g data-name="4-Article-Missing1"><path fill="#f0f0f0" fill-rule="evenodd" d="M72.82 201.31c-4.11-.7-9.84-6.38-12.69-8.74-10.35-8.6-31.28-31.7-21.19-45 12.12-16 40.88 19.34 50.7 1.88 8.36-14.88.61-38.9 10.64-57.33 4.65-8.52 13.63-16.32 24.9-15 27.68 3.17 21.64 41.39 40.85 48.69 5.54 2.11 10.86-.77 15.19-3.8 9.85-6.89 17.3-16.21 26.58-23.67 4.36-3.49 12.32-9.25 18.54-5.91 4.55 2.45 4 8.22 2.79 12.15-2 6.55-14.42 24.51-10.88 30.56 5 8.58 32.41-.14 37.62 10.87 4.23 8.92-9.62 20.62-12.13 29-2.2 7.33 12.67 11.29 8.62 17.73s-27.36 11.13-35.25 12.68c-19.72 3.88-39.73 2.34-59.71 1.46s-64.69-4.62-84.58-5.57Z" class="colorf0f0f0 svgShape"/><path fill="#ffffff" fill-rule="evenodd" d="M147.49 108.78c-1.39.62-2.8 1.21-4.13 1.89-2.8 1.43-5.27 3.24-6.67 6.43-1.87 4.24-1 8.74 2.83 11.47a6.32 6.32 0 0 0 3 1.3c-.39 1.35-.79 2.72-1.12 4.12a23.12 23.12 0 0 0-5.56.86 87.7 87.7 0 0 0-8.71 2.26c-8.49 2.65-16.66 6.82-24.48 11-5.57 3-11.47 6-16 10.49a17.19 17.19 0 0 0-4.43 6.86 7.48 7.48 0 0 0 1.58 7.65 8.82 8.82 0 0 0 2.2 1.79 12.23 12.23 0 0 0 3.57 1.25c5.74 1.13 12-1 17.1-3.79a1.56 1.56 0 0 0 .13 1 66.45 66.45 0 0 0-5.64 4c-.49.34-1.07.71-1.59 1.15a3.62 3.62 0 0 0-1.2 1.61 12.4 12.4 0 0 0-.3 4.34 10.73 10.73 0 0 1 .15 1.51h-9.14v4.34a.15.15 0 0 0 .13.16l5.32 1h-4.32V196a.15.15 0 0 0 .13.16l5.31 1H91.3v1.53a84 84 0 0 0-13.28.27 35.29 35.29 0 0 0-5.7.71 3.33 3.33 0 0 0-1.85 1.06c-.19.27-.07.55.26.78a8.5 8.5 0 0 0 2.07.77c2.41.81 4.93 1.31 7.34 2.1a7.35 7.35 0 0 1 1.92.83l.11.12a.07.07 0 0 1 0 .06s0 .06-.08.09a7.36 7.36 0 0 1-2.77 1.07c-1.66.35-3.51.47-4.78.65a149 149 0 0 0-15 2.5 15.87 15.87 0 0 0-4.75 1.81 1.47 1.47 0 0 0-.22 2.6c2.39 2.12 6.74 2.8 9.86 3.4a212.8 212.8 0 0 0 25.34 2.83c32.25 2.3 64.86 2.93 97.21 2.64 14-.12 28.65-.41 42.3-3.64a52.66 52.66 0 0 0 8.92-2.55 9.83 9.83 0 0 0 3.06-2 3.21 3.21 0 0 0 .92-1.72 1.66 1.66 0 0 0-.65-1.51 7.2 7.2 0 0 0-2.3-1.21c-3.86-1.38-8.22-1.43-12.31-1.74a19 19 0 0 1-3.47-.28 2.7 2.7 0 0 1-.61-.22.61.61 0 0 1-.28-.27l.09-.09a2.24 2.24 0 0 1 .58-.28 23.77 23.77 0 0 1 3.76-.8c3.73-.59 7.55-.81 11.25-1.52a9.11 9.11 0 0 0 2.34-.68 1.93 1.93 0 0 0 1.08-1.15 1.49 1.49 0 0 0-.34-1.36 5.1 5.1 0 0 0-1.42-1.17c-2.77-1.66-8-2.85-9.24-3.08-3.07-.59-6.17-1-9.3-1.36a5.82 5.82 0 0 1 1.34-1 29.61 29.61 0 0 1 3-1.29 8 8 0 0 0 2.8-1.71 17.1 17.1 0 0 0 2.83-4.86 7.25 7.25 0 0 1 3.87-3.94c2.09-.86 4.66-.91 7.06-1a19.9 19.9 0 0 0 2.68-.21 4.17 4.17 0 0 0 2.29-1.06 1.9 1.9 0 0 0 .6-1.06 2.07 2.07 0 0 0-.47-1.49 23.28 23.28 0 0 1-1.77-2.35 3 3 0 0 1 .58-3.21c1.67-2.11 4.63-3.11 7.42-3.9a21.37 21.37 0 0 0 2.94-.84 2.09 2.09 0 0 0 1.32-1.31 2.41 2.41 0 0 0-.56-1.9 27.36 27.36 0 0 0-2.21-2.43c-1.71-1.88-2.28-3.71-1.27-5.64 1.23-2.34 4.07-3.65 6.7-4.63a13.12 13.12 0 0 0 2.38-1 1.58 1.58 0 0 0 .93-1.29c0-.48-.39-.84-.93-1.09a8.06 8.06 0 0 0-2.17-.53 30.68 30.68 0 0 0-10.5.81c-7.83 1.84-14.47 6.56-19.88 11.4l-.24-.18a19.93 19.93 0 0 1-2.45-1.58 4.26 4.26 0 0 1-.82-3.75c.55-3.08 2.64-5.66 4.67-7.92a21.92 21.92 0 0 0 2.14-2.39 2.83 2.83 0 0 0 .57-2 2.7 2.7 0 0 0-1.24-1.69 21.35 21.35 0 0 0-2.85-1.45 5.45 5.45 0 0 1-3.37-5.35c.08-3.11 1.94-6 3.78-8.35a15.44 15.44 0 0 0 1.6-2.24 2.15 2.15 0 0 0 .25-1.78 1.16 1.16 0 0 0-1.23-.67 6.2 6.2 0 0 0-2.07.55 27.85 27.85 0 0 0-8.51 6.21c-6 6.14-9.75 14.86-12.36 23a97.08 97.08 0 0 0-2.88 11.67c-3.39-9.22-8.91-17.81-16.53-23.82a24.47 24.47 0 0 0-10.54-4.76c-.94-.19-3.71-.54-4.49-.64a10.56 10.56 0 0 0 .91-1.69 8.06 8.06 0 0 1 1-1.73c1.46-1.81 3.66-2.8 5.5-4.14a11.41 11.41 0 0 0 4.72-7.24 10.47 10.47 0 0 0 .08-3.11c-.42-3.42-2.78-6.51-6.36-6.86a9.55 9.55 0 0 0-4.25.76 7.38 7.38 0 0 0-1.35.67 2.4 2.4 0 0 0-.25.23 1.59 1.59 0 0 1-.13.13.17.17 0 0 0-.1 0 11.55 11.55 0 0 1-1.68-1.4c-1.62-1.62-3-3.67-4.61-5.46a11.37 11.37 0 0 0-5.95-3.88c-4.7-1-8.85 1.47-11.66 5.07a12.65 12.65 0 0 0-1.76 3 7.21 7.21 0 0 0-.29.71s-.1.02-.1.04Z" class="colorfff svgShape"/><path fill-rule="evenodd" d="M91.22 198.93a87.39 87.39 0 0 0-13.25.26c-1 .1-3.07.14-4.81.47a7.53 7.53 0 0 0-1.8.54 1.89 1.89 0 0 0-.7.54.11.11 0 0 0 0 .14.57.57 0 0 0 .18.16 8.56 8.56 0 0 0 2 .7c2.4.77 4.92 1.25 7.33 2a7.89 7.89 0 0 1 2 .86.52.52 0 0 1 .23.45.45.45 0 0 1-.21.31 8 8 0 0 1-2.91 1.06c-1.66.34-3.52.46-4.8.63-5 .66-10.1 1.24-15 2.38a16 16 0 0 0-4.63 1.68c-.47.33-.79.69-.76 1.11a1.35 1.35 0 0 0 .57.87c2.35 2 6.64 2.61 9.71 3.18a222.35 222.35 0 0 0 25.3 2.73c32.25 2.19 64.85 2.79 97.19 2.53 14-.12 28.59-.39 42.23-3.48a53.48 53.48 0 0 0 8.85-2.41 10.15 10.15 0 0 0 2.58-1.46 3 3 0 0 0 1.21-1.8 1.25 1.25 0 0 0-.54-1.15 7 7 0 0 0-2.19-1.1c-3.84-1.31-8.17-1.35-12.23-1.64a21.66 21.66 0 0 1-3.52-.28 2.63 2.63 0 0 1-.8-.3.88.88 0 0 1-.32-.35.36.36 0 0 1 .06-.37 1.18 1.18 0 0 1 .33-.25 20.07 20.07 0 0 1 4.3-1c3.73-.57 7.55-.77 11.25-1.45a9.12 9.12 0 0 0 2.25-.63 1.56 1.56 0 0 0 .91-.89 1.12 1.12 0 0 0-.29-1 4.77 4.77 0 0 0-1.32-1c-2.74-1.56-7.93-2.69-9.13-2.9-13.45-2.45-27.6-2.29-41.26-1.71-10.32.44-45.6 1.57-50.26 2.12a7.56 7.56 0 0 0 1.79 2.47c3.66 3.46 4.2 4.48 8.24 7.55a13.27 13.27 0 0 1 2.42 2.3 3.33 3.33 0 0 1 .81 1.87.34.34 0 0 1-.27.36 2.33 2.33 0 0 1-1 0c-1.06-.11-2.09-.34-3.14-.51a48.85 48.85 0 0 0-8.2-.43c-5.34 0-10.67.32-16 .19-1.38 0-2.76-.07-4.13-.16a4.59 4.59 0 0 1-1.78-.28.78.78 0 0 1-.44-.92 4.26 4.26 0 0 1 .68-1.31 19.64 19.64 0 0 0 2.37-4.68H98.43l-7.09-1.77a.16.16 0 0 1-.12-.15Z" fill="#000000" class="color000 svgShape"/><path fill="#ffffff" fill-rule="evenodd" d="M119 197.36c0 .07.11.14.16.22A8.71 8.71 0 0 1 121 204c-.29 2.35-1.45 4.28-2.68 6.36a6.14 6.14 0 0 0-.57 1c-.12.32-.13.65.21.83a4.1 4.1 0 0 0 1.64.26c1.37.08 2.75.12 4.12.16 5.34.14 10.66-.15 16-.2a46.51 46.51 0 0 1 8.26.46c1.05.17 2.08.41 3.13.53a2.61 2.61 0 0 0 .71 0h.1a.07.07 0 0 0 0-.06 3.31 3.31 0 0 0-.75-1.77 13.38 13.38 0 0 0-2.35-2.35c-4.06-3.22-4.6-4.29-8.28-7.92a7.4 7.4 0 0 1-2.34-6.34c.31-2.12 1.46-4.32 2-6.48a5.55 5.55 0 0 0-1.67-6 7.52 7.52 0 0 0-2-1.29 14.75 14.75 0 0 0-5.38-.6 82.68 82.68 0 0 0-9.13.69.16.16 0 0 1-.09 0h-.07c-3.61.46-7.18 1.08-9.85 1.71h-.07c-.49.25-1 .47-1.52.68s-.83.31-1.25.43h3.25c1.42 0 2.08.94 2.42 2.28.37 1.51.31 3.56.54 5.25a.15.15 0 0 1 0 .11.17.17 0 0 1 0 .07 7.2 7.2 0 0 0 .21 1 6.75 6.75 0 0 0 1.46 2.48c.53.63 1.12 1.23 1.65 1.87a.16.16 0 0 1 .16.17.17.17 0 0 1 .14.03Z" class="colorfff svgShape"/><path fill="#cdd2fc" fill-rule="evenodd" d="M91.55 199a.14.14 0 0 1 .06.13.16.16 0 0 1-.06.12v3.92l6.94 1.83h22a7.25 7.25 0 0 0 .18-.95 7.5 7.5 0 0 0-.82-4.46H98.48l-6.93-1.72Z" class="colorcdd2fc svgShape"/><path fill="#494e6c" fill-rule="evenodd" d="M97.34 197.67h-4.66l5.87 1.33h21.07a8.89 8.89 0 0 0-.77-1l-.25-.27H97.34Z" class="color494e6c svgShape"/><path fill="#cdd2fc" fill-rule="evenodd" d="M115.43 193.66h-18l-7-1.23v3.75l6.93 1.24h20.94c-.47-.53-1-1.05-1.45-1.58a7.32 7.32 0 0 1-1.42-2.18Z" class="colorcdd2fc svgShape"/><path fill="#494e6c" fill-rule="evenodd" d="M97.43 193h17.89a8.17 8.17 0 0 1-.2-.94h-23Z" class="color494e6c svgShape"/><path fill="#cdd2fc" fill-rule="evenodd" d="M114.75 188.31H96.31l-7-1.23v3.76l6.94 1.23h18.8c-.14-1.18-.15-2.55-.3-3.76Z" class="colorcdd2fc svgShape"/><path fill="#494e6c" fill-rule="evenodd" d="M114.5 186.5H91l5.35 1h18.38a6.27 6.27 0 0 0-.16-.82ZM117.3 166.47c-.35.5-.71 1-1.07 1.49a26.47 26.47 0 0 1-2.85 3.56 4.72 4.72 0 0 1-2 1.32 1.36 1.36 0 0 1-1-.07 4 4 0 0 1-2.21 1.32 1.23 1.23 0 0 1-1.1-.17 64.19 64.19 0 0 0-5.65 3.88 18.2 18.2 0 0 0-1.57 1.11 3.2 3.2 0 0 0-1.1 1.42 11.48 11.48 0 0 0-.28 4.13 14.4 14.4 0 0 1 .14 1.5H99c0-.81.05-1.61 0-2.41a3.74 3.74 0 0 1 .15-1.85 1.77 1.77 0 0 1 .56-.6 10.57 10.57 0 0 1 1-.57c1-.54 1.9-1.13 2.82-1.74 3.73-2.49 7.36-5.15 11.21-7.47 1-.63 2.09-1.23 3.16-1.8.25-.13.61-.26.92-.42a1.43 1.43 0 0 0 .45-.31.25.25 0 0 0 0-.11 3.8 3.8 0 0 0-.33-.41 16.78 16.78 0 0 0-1.17-1.36c-.08-.09-.18-.24-.28-.34s-.08-.09-.12-.1Z" class="color494e6c svgShape"/><path fill="#cdd2fc" fill-rule="evenodd" d="M117.55 171.16c-.09.3-.24.61-.32.81a14.15 14.15 0 0 1-2.1 3.68c-3.68 4.48-9.53 6.33-15.32 5.91a1.24 1.24 0 0 0-.32.37 3.33 3.33 0 0 0-.12 1.66v2.38h15.03a1.94 1.94 0 0 0-1.89-1.48l-4.66.07a.16.16 0 0 1-.17-.16.16.16 0 0 1 .19-.13h.07l.22-.05.36-.12a17.72 17.72 0 0 0 1.79-.56 16.9 16.9 0 0 0 6.87-4.82 13.89 13.89 0 0 0 1.49-1.94l.25-.36a.7.7 0 0 0 .14-.32 1.59 1.59 0 0 0-.16-.73c-.16-.42-.42-.85-.54-1.2-.36-1-.56-2.02-.81-3.01Z" class="colorcdd2fc svgShape"/><path fill="#cdd2fc" fill-rule="evenodd" d="M116.19 170.72q-1.11.63-2.19 1.29c-3.61 2.19-7 4.7-10.5 7.06-.86.58-1.75 1.14-2.65 1.66-.19.11-.42.21-.64.34 5.21.3 10.43-1.45 13.73-5.6a13.34 13.34 0 0 0 1.92-3.46 7.41 7.41 0 0 0 .3-.79.79.79 0 0 0 0-.45Z" class="colorcdd2fc svgShape"/><path fill="#ffaa40" fill-rule="evenodd" d="M141.5 135.23a23.86 23.86 0 0 0-5.4.84c-2.91.59-5.81 1.35-8.64 2.22-8.44 2.61-16.55 6.71-24.33 10.83-5.51 2.88-11.36 5.88-15.87 10.29a16.66 16.66 0 0 0-4.33 6.59 7.05 7.05 0 0 0 1.5 7.23 8.89 8.89 0 0 0 2.21 1.77 12.47 12.47 0 0 0 3.46 1.2c5.74 1.11 12-1.09 17.06-3.85a17.37 17.37 0 0 1 1.27-2.81c.47-1 .94-1.89 1.42-2.84a2.57 2.57 0 0 1-.27-1.48c0-.36.1-.74.15-1.11-.28.29-.56.55-.72.69a16.42 16.42 0 0 1-2.82 1.94c-3.49 1.84-7.55 2.45-11.46 2.73-.59 0-1.17.06-1.76.06a4.28 4.28 0 0 1-3 .78 2.23 2.23 0 0 1-1.56-.81 2.09 2.09 0 0 1-.36-1.28 3.54 3.54 0 0 1 .6-1.79 11.57 11.57 0 0 1 1.88-2.14c1.89-1.79 4.08-3.25 6-5.07 1.4-1.38 2.45-3.08 3.9-4.4a5 5 0 0 1 2.91-1.3 2.33 2.33 0 0 1 1 .1 1.86 1.86 0 0 1 .43.25h.3c1.24-.32 2.46-.83 3.7-1.15a24.64 24.64 0 0 1 5.74-1.08c4.24 0 9 2.27 10.58 6.32 1.64 4.2.46 8.94-2.08 12.48a27.6 27.6 0 0 1-2.39 2.86 7.22 7.22 0 0 1 1.1 2.75 28.51 28.51 0 0 1 .63 5.22 83.11 83.11 0 0 1 9-.68 15 15 0 0 1 5.49.63 8.07 8.07 0 0 1 2.06 1.32 5.74 5.74 0 0 1 1.76 6.29c-.52 2.11-1.66 4.27-2 6.35a6.24 6.24 0 0 0 .32 3.09c4.32-.56 39.82-1.74 50.17-2.19l3.23-.13a15.51 15.51 0 0 1-.13-2.82 13.8 13.8 0 0 1-7.33-9.65.16.16 0 0 1 .13-.19h.05c-.19-.18-.37-.38-.55-.57-2.57-2.73-4.13-6.12-6.32-9.12-1.49-2-3.54-3.45-5.19-5.31-1.24-1.4-1.94-3.16-3.09-4.62a5.4 5.4 0 0 0-2.76-2.06c-1.21-.34-2.51-.14-3.73-.45a3 3 0 0 1-1.39-.73.91.91 0 0 1-.16-1.07 2 2 0 0 1 1-.93 5.11 5.11 0 0 1 1.33-.4 1.86 1.86 0 0 1-.23-.78 6.2 6.2 0 0 1 .17-1.75c.06-.28.11-.56.19-.83v-.13l-.19-.05c-.45-.13-1-.22-1.45-.36a3.5 3.5 0 0 1-1.39-.69 1.12 1.12 0 0 1-.2-1.62 2.12 2.12 0 0 1 1-.74 6.36 6.36 0 0 1 2.76-.23c0-.24.07-.49.11-.73a2.89 2.89 0 0 1 0-.29l-.81-.15a3.42 3.42 0 0 1-1.59-.76 1.41 1.41 0 0 1-.49-1.29 1.64 1.64 0 0 1 .81-1.12 5 5 0 0 1 2.91-.52v-.22l.09-.67c.1-.68.2-1.35.31-2a40.78 40.78 0 0 1 1.12-4.77c0-.08 0-.15.06-.24a32 32 0 0 1-6.34 7.75 4.06 4.06 0 0 1 .64 3.42c-1 7.26-9 8.17-11.91 8.05a11.23 11.23 0 0 0-8.26 2.52A8.34 8.34 0 0 0 140 162a6 6 0 0 0-.77 4c.47 2.51 2.79 3.23 5 2.75a3.15 3.15 0 0 1 1.77-2.45 1.86 1.86 0 0 1 1.85.31l.2.17c.79-.49 1.59-1 2.4-1.43 2-1.09 4.1-1.69 6.24-.47a5.28 5.28 0 0 1 1.25 1 4.83 4.83 0 0 1 1.1 2 5.39 5.39 0 0 1-1 4.55 3.83 3.83 0 0 1-4.32 1.41 5.91 5.91 0 0 1-2.95-2.41c-.74-1-1.32-2.25-2-3.26a6.28 6.28 0 0 0-.77-1 15 15 0 0 1-3.17 1.61 2.77 2.77 0 0 1-.41.12 21.85 21.85 0 0 0-.15 5.54 7.37 7.37 0 0 1-.08 1.41 2 2 0 0 1-.67 1.3 2 2 0 0 1-1.11.42 5 5 0 0 1-1.92-.25.16.16 0 1 1 .09-.31c1.38.4 3 .54 3.29-1.21a7.69 7.69 0 0 0 .07-1.35 23.27 23.27 0 0 1 .12-5.47c-2.34.46-4.75-.39-5.24-3.05a6.33 6.33 0 0 1 .8-4.16 8.76 8.76 0 0 1 1.87-2.33 11.53 11.53 0 0 1 8.5-2.61 15.47 15.47 0 0 0 6.49-1.21 8.12 8.12 0 0 0 5.07-6.56 3.76 3.76 0 0 0-.56-3.15c-.43.37-.87.74-1.32 1.09 1.86 1.8.93 4.61-1.08 6-2.33 1.65-5.6 1.89-8.35 1.48-2.2-.33-4.83-1.07-6.48-2.63a7.38 7.38 0 0 1-1.51-2 1.65 1.65 0 0 1-.24-.92 1.58 1.58 0 0 1 .08-.26.6.6 0 0 1 .07-.14.25.25 0 0 1 .12-.07 9.56 9.56 0 0 1-.94-2.09c-1.09-3.61-.7-7.43.16-11.14Z" class="colorffaa40 svgShape"/><path fill-rule="evenodd" d="M88 167.56v.19a1.76 1.76 0 0 0 .3 1.09 1.88 1.88 0 0 0 1.33.68A4 4 0 0 0 92 169a10.77 10.77 0 0 1-2-.27 5 5 0 0 1-2-1.17Z" fill="#000000" class="color000 svgShape"/><path fill="#ffaa40" fill-rule="evenodd" d="M173.39 134.84a3.84 3.84 0 0 1-2.11 1.14 8.08 8.08 0 0 1 1.08.29 2.47 2.47 0 0 1 .63.32.7.7 0 0 1 .25.3 2.83 2.83 0 0 1 0 1.62c-.19.9-.54 1.88-.63 2.45a.17.17 0 0 1-.1.13c0 .06.09.12.13.19.94 1.31 1.7 2.88 2.43 4.05 1.58 2.52 3.87 4.82 4.87 7.65a13.54 13.54 0 0 1 .61 4.23 18.12 18.12 0 0 0 .44 4.15c1 3.52 4.13 6.11 7.33 7.81a25.84 25.84 0 0 1-3.22-11.31c-.06-1.29-.29-3.16.19-4.4a.16.16 0 0 1 .21-.09.15.15 0 0 1 .09.21c-.46 1.2-.22 3-.16 4.26a25.62 25.62 0 0 0 3.41 11.6l.22.1a2 2 0 0 1 .47-.58c.49-.43 1.14-.6 1.54-.15a5.13 5.13 0 0 1 .9 2.44c.3 1.56.38 3.16.82 4.7a14.61 14.61 0 0 0 1.69 3.46 13.22 13.22 0 0 1 1.64 3.58 8.56 8.56 0 0 1-.63 5.87 1.83 1.83 0 0 1-1.84 1 1.68 1.68 0 0 1-1.39-1.48c-.69-.33-1.35-.7-2-1.08a26.84 26.84 0 0 1-5.37-4 13.49 13.49 0 0 0 7 9.41.21.21 0 0 1 .14.1l.77.37c3.92 1.72 8.5 1.42 11.86-2.24a11.76 11.76 0 0 0 2.78-6.43 34.58 34.58 0 0 0-.68-10.93 65.88 65.88 0 0 0-2.47-9.25.17.17 0 0 1-.13-.2V164c-3.26-9.23-8.65-17.87-16.16-23.87a23.49 23.49 0 0 0-10.11-4.64c-1-.22-4.35-.63-4.5-.65Z" class="colorffaa40 svgShape"/><path fill="#ffffff" fill-rule="evenodd" d="M189.12 169.34c-3.52-1.76-7.1-4.53-8.16-8.36a18.19 18.19 0 0 1-.46-4.29 13.23 13.23 0 0 0-.61-4.18c-1-2.85-3.37-5.16-5-7.69-.75-1.18-1.52-2.77-2.49-4.1a6.78 6.78 0 0 0-2.18-2.07.72.72 0 0 0-.64-.1.65.65 0 0 0-.28.42 2.37 2.37 0 0 0 0 1.06 18.7 18.7 0 0 0 2.27 5.21c.26.47.51.95.79 1.41l.14.21a7.08 7.08 0 0 1 .89.49 13.56 13.56 0 0 1 2.83 2.83.17.17 0 0 1 0 .23.15.15 0 0 1-.23 0 13.08 13.08 0 0 0-2.76-2.75c-.2-.13-.4-.25-.61-.36a.23.23 0 0 1-.21-.06.45.45 0 0 1-.09-.1c-.51-.23-1-.41-1.58-.59a22.29 22.29 0 0 0-3.42-.88.15.15 0 0 1-.09 0 .19.19 0 0 1-.1 0l-.67-.08a5.23 5.23 0 0 0-3.24.43 1.3 1.3 0 0 0-.67 1.12 1.15 1.15 0 0 0 .4.81 3 3 0 0 0 1.45.68 7.12 7.12 0 0 0 .9.17.21.21 0 0 1 .11 0l.65.11a12.93 12.93 0 0 1 3.7 1.39 14.52 14.52 0 0 1 1.36.83l.39.07a.16.16 0 0 1 .14.19.12.12 0 0 1 0 .08c.44.32.87.65 1.29 1s.58.44.86.67c0 0 .09.1.15.15l.09.07a.17.17 0 0 1 .13.19.16.16 0 0 1-.19.14.37.37 0 0 1-.17-.08c-.08-.06-.17-.17-.22-.21l-.85-.67c-.56-.43-1.12-.86-1.7-1.26-1.29-.2-2.59-.41-3.88-.64-.61-.12-1.28-.25-2-.34h-.07a.19.19 0 0 1-.09 0 5.81 5.81 0 0 0-2.7.2 1.91 1.91 0 0 0-.89.63.83.83 0 0 0 .16 1.21 3.14 3.14 0 0 0 1.27.62c.49.15 1 .24 1.46.37l.2.05v-.05a.14.14 0 0 1 .14 0 .16.16 0 0 1 .11.07.13.13 0 0 1 0 .1 35.76 35.76 0 0 1 4.07 1.54c1 .44 2 .92 3 1.36.22.09.43.19.65.27l.11.05a.18.18 0 0 1 .13 0 .16.16 0 0 1 0 .23.18.18 0 0 1-.17.06 1.38 1.38 0 0 1-.2-.08h-.09a.14.14 0 0 1-.07.1 6.56 6.56 0 0 1-3.69.59c-1-.07-2-.21-3-.18a.18.18 0 0 1-.09.17.17.17 0 0 1-.23-.08v-.08h-.49a.12.12 0 0 1 0 .08.16.16 0 0 1-.24 0 4.83 4.83 0 0 0-1.41.41 1.73 1.73 0 0 0-.84.78.68.68 0 0 0 .27.87 3.09 3.09 0 0 0 1.07.49c1.23.31 2.53.11 3.75.46a5.8 5.8 0 0 1 2.95 2.21c1.15 1.48 1.85 3.25 3.09 4.66 1.66 1.9 3.73 3.35 5.23 5.42 2.19 3 3.75 6.46 6.32 9.22a25.82 25.82 0 0 0 6.14 4.7 24.59 24.59 0 0 0 2.27 1.2 7.27 7.27 0 0 0 .76.33.39.39 0 0 0 .16 0 .47.47 0 0 1 .17 0 .22.22 0 0 1 .13.12.19.19 0 0 1 0 .15.16.16 0 0 1-.19.12.2.2 0 0 1-.12-.08h-.27l-.64-.28a1.34 1.34 0 0 0 1.09 1 1.58 1.58 0 0 0 1.56-.84 8.19 8.19 0 0 0 .6-5.72 12.76 12.76 0 0 0-1.64-3.53 15.19 15.19 0 0 1-1.77-3.59c-.46-1.56-.55-3.2-.86-4.79a4.86 4.86 0 0 0-.84-2.32.51.51 0 0 0-.49-.15 1.42 1.42 0 0 0-.63.33 1.8 1.8 0 0 0-.4.48l.6.28a.18.18 0 0 1 .09.22.17.17 0 0 1-.22.08l-.6-.26a.46.46 0 0 0 0 .31.16.16 0 0 1-.07.22.15.15 0 0 1-.22-.07.73.73 0 0 1-.07-.49.15.15 0 0 1-.18-.08ZM118.83 174a36.3 36.3 0 0 0 3.62-4.2c2.5-3.51 3.66-8.2 2.06-12.35-1.54-4-6.18-6.24-10.31-6.2a24.05 24.05 0 0 0-5.68 1.08c-1.25.33-2.47.85-3.72 1.17a22.07 22.07 0 0 1-3.66.31 5.28 5.28 0 0 0-.82.61c-1.45 1.33-2.5 3.06-3.9 4.45-1.88 1.85-4.08 3.34-6 5.16a11.38 11.38 0 0 0-1.83 2.09 4.08 4.08 0 0 0-.47 1 4.41 4.41 0 0 0 1.92 1.27 14.09 14.09 0 0 0 4.25.22c3.88-.27 7.91-.88 11.38-2.73a15 15 0 0 0 2.76-1.93 7.45 7.45 0 0 0 1-1c.1-1.29 0-2.6 0-3.9a10.67 10.67 0 0 1 .12-1.69 2.48 2.48 0 0 1 .09-.31v-.15a.17.17 0 0 1 .3-.14.25.25 0 0 1 0 .19c0 .14-.12.41-.13.47a11.2 11.2 0 0 0-.11 1.64c0 1.36.13 2.75 0 4.11 0 .5-.16 1-.2 1.51a2.52 2.52 0 0 0 .12 1.09c.27-.54.53-1.08.79-1.62.63-1.28 1.24-2.57 1.88-3.84L113 159l.23-.43.1-.13a.16.16 0 0 1 .08-.1.16.16 0 0 1 .22 0 .16.16 0 0 1 0 .16.13.13 0 0 1 0 .07 1.47 1.47 0 0 0-.1.13c-.08.13-.15.28-.22.42-.23.43-.45.86-.67 1.3-.64 1.27-1.25 2.55-1.88 3.84-.79 1.63-1.6 3.25-2.4 4.88a13.18 13.18 0 0 0-1.34 3.17 1.14 1.14 0 0 0 .16.94.81.81 0 0 0 .87.18 3.7 3.7 0 0 0 2-1.23 1.34 1.34 0 0 1-.3-1.05 6.72 6.72 0 0 1 1.28-2.84c1.09-1.69 2.34-3.25 3.39-5a22.72 22.72 0 0 0 1.19-2.1c0-.08.16-.27.24-.45a.42.42 0 0 0 .06-.14.16.16 0 0 1 .13-.19.16.16 0 0 1 .2.12.6.6 0 0 1-.05.3c-.08.2-.25.45-.29.55-.36.73-.78 1.43-1.21 2.13-1 1.71-2.3 3.28-3.38 5a6.25 6.25 0 0 0-1.24 2.69.83.83 0 0 0 1.13 1 4.32 4.32 0 0 0 1.89-1.26 27.17 27.17 0 0 0 2.82-3.59c1-1.49 2.09-3 3.1-4.49a.17.17 0 0 1 .28.18c-.6.91-1.22 1.8-1.84 2.69l.12.09a3.2 3.2 0 0 1 .36.41l.51.58a15.39 15.39 0 0 0 1.68-4.31.16.16 0 0 1 .19-.13.17.17 0 0 1 .13.2 15.53 15.53 0 0 1-1.77 4.51l.45.58a3.6 3.6 0 0 1 .4.54.36.36 0 0 1 0 .38 2 2 0 0 1-.58.42c-.31.16-.67.29-.91.42l-.45.24a.19.19 0 0 1 .09.11c.33 1.23.53 2.52.94 3.73q.12.22.22.48Z" class="colorfff svgShape"/><path fill="#ffaa40" fill-rule="evenodd" d="M148.15 167.1a6.73 6.73 0 0 1 .74 1c.61.94 1.17 2.05 1.89 3a5.37 5.37 0 0 0 2.69 2.14 3.44 3.44 0 0 0 3.82-1.22 4.56 4.56 0 0 0 1-4 4.08 4.08 0 0 0-1-1.78 4.64 4.64 0 0 0-1.14-.88c-2-1.09-3.86-.53-5.72.43-.79.41-1.54.87-2.28 1.31ZM147.62 166.51l-.12-.09a1.53 1.53 0 0 0-1.54-.27 2.79 2.79 0 0 0-1.59 2l.21-.07a14.33 14.33 0 0 0 3.04-1.57Z" class="colorffaa40 svgShape"/><path fill="#ffffff" fill-rule="evenodd" d="M159.32 146.49a30.08 30.08 0 0 1-5.84 3.55c-3.83 1.73-8.55 2-11.13-1.86l-.06-.09v.17a1.35 1.35 0 0 0 .21.75 7.36 7.36 0 0 0 1.45 1.92c1.61 1.54 4.18 2.25 6.32 2.58 2.68.4 5.88.18 8.14-1.44 1.76-1.28 2.67-3.91.91-5.58Z" class="colorfff svgShape"/><path fill-rule="evenodd" d="M103.93 153.28h-.09a1.84 1.84 0 0 0-.84-.09 4.26 4.26 0 0 0-1.23.3c.84-.07 1.61-.14 2.16-.21Z" fill="#000000" class="color000 svgShape"/><path fill="#ffffff" fill-rule="evenodd" d="M145.6 122.34a39.37 39.37 0 0 0-2.49 6.57c-1.58 5.32-3.31 11.16-1.61 16.68a9.25 9.25 0 0 0 1.13 2.4c2.48 3.76 7 3.42 10.71 1.75a31.55 31.55 0 0 0 15.44-15.9c-1.28-1.67-1.21-3.29-1.66-5.3a7.42 7.42 0 0 0-.55-1.71 2.3 2.3 0 0 0-1.18-1.18 5.16 5.16 0 0 0-3.63.21c-1.28.45-2.54 1.1-3.62 1.44a15.22 15.22 0 0 1-6.14.7 7.09 7.09 0 0 1-5.3-3 8.3 8.3 0 0 1-1.1-2.66Z" class="colorfff svgShape"/><path fill-rule="evenodd" d="M173.66 111.36a12.13 12.13 0 0 0 4 1.52.16.16 0 0 1-.06.32 11.77 11.77 0 0 1-6.18-3.21c-1.62-1.6-3-3.62-4.61-5.37a10.91 10.91 0 0 0-5.81-3.72c-4.55-1-8.56 1.43-11.28 4.87a12.14 12.14 0 0 0-1.71 2.82c0 .09-.14.29-.21.49a32.09 32.09 0 0 0 3.92-2 .17.17 0 1 1 .18.28 32.34 32.34 0 0 1-4.16 2.09.17.17 0 0 1-.09.17.16.16 0 0 1-.19 0c-1.36.59-2.73 1.16-4 1.82-2.72 1.36-5.13 3.09-6.49 6.15-1.79 4-1 8.28 2.71 10.86a6 6 0 0 0 2.85 1.23c.08-.24.15-.48.22-.72a36.33 36.33 0 0 1 2.68-6.84 7.16 7.16 0 0 1-.11-2.26.17.17 0 0 1 .19-.14.16.16 0 0 1 .14.18 7.3 7.3 0 0 0 .2 2.59 7.7 7.7 0 0 0 1 2.61 6.7 6.7 0 0 0 5 2.75 15.14 15.14 0 0 0 6-.68c1.29-.41 2.84-1.25 4.38-1.66a4.8 4.8 0 0 1 3.07 0c1.26.51 1.64 1.87 1.91 3.06.44 1.92.36 3.47 1.59 5.06a.17.17 0 0 1 .09.21c-.1.22-.19.45-.3.67a3.8 3.8 0 0 0 4.49-.91 9.54 9.54 0 0 0 1-1.71 8 8 0 0 1 1-1.76c1.48-1.8 3.68-2.79 5.55-4.13a10.89 10.89 0 0 0 4.56-6.9 10.14 10.14 0 0 0 .08-3c-.4-3.21-2.63-6.13-6-6.45a9.24 9.24 0 0 0-4.08.73 6.87 6.87 0 0 0-1.28.62c-.07 0-.15.15-.24.23Z" fill="#000000" class="color000 svgShape"/><path fill="#00c6b3" fill-rule="evenodd" d="M220.84 196.37a6 6 0 0 1 1.59-1.21 31.26 31.26 0 0 1 3.07-1.24 8 8 0 0 0 2.68-1.56 16 16 0 0 0 2.82-4.56 7.38 7.38 0 0 1 4.05-3.92 22.61 22.61 0 0 1 7.17-1 23.1 23.1 0 0 0 2.64-.2 3.86 3.86 0 0 0 2.11-.93 1.56 1.56 0 0 0 .5-.83 1.67 1.67 0 0 0-.41-1.19 21.36 21.36 0 0 1-1.8-2.29 3.11 3.11 0 0 1 .62-3.41c1.7-2.05 4.73-3.06 7.59-3.82a22.29 22.29 0 0 0 2.89-.79 1.73 1.73 0 0 0 1.14-1 2 2 0 0 0-.52-1.55 25.72 25.72 0 0 0-2.17-2.29c-1.83-1.92-2.4-3.78-1.33-5.75 1.27-2.3 4.17-3.61 6.89-4.57a14.33 14.33 0 0 0 2.32-.9c.44-.26.77-.56.76-1s-.32-.57-.73-.75a8.31 8.31 0 0 0-2.07-.49 31.53 31.53 0 0 0-10.38.77c-7.77 1.74-14.35 6.21-19.72 10.8a1.81 1.81 0 0 1 .42.6 2.24 2.24 0 0 1 0 1.59c-.5 1.74-2.19 2.75-3.66 3.69-2 1.28-4.13 2.57-5.53 4.46a9.3 9.3 0 0 0-1.68 5.91 22.94 22.94 0 0 1-.4 6.26 9.43 9.43 0 0 1-1.7 3.1 32.07 32.07 0 0 0-2 2.78 7.55 7.55 0 0 0-1 4.84q2.91.17 5.84.45Z" class="color00c6b3 svgShape"/><path fill="#00c6b3" fill-rule="evenodd" d="m229.11 162.72-.19-.15a17.37 17.37 0 0 1-2.4-1.54 4.34 4.34 0 0 1-.89-3.85c.54-3 2.59-5.53 4.59-7.73a20.29 20.29 0 0 0 2-2.25 2.33 2.33 0 0 0 .51-1.69 2.25 2.25 0 0 0-1.07-1.41 20.09 20.09 0 0 0-2.7-1.36 5.48 5.48 0 0 1-3.43-5.4c.08-3 1.9-5.83 3.7-8.16a13.52 13.52 0 0 0 1.52-2.09 1.75 1.75 0 0 0 .23-1.44.82.82 0 0 0-.88-.44 5.61 5.61 0 0 0-1.87.5 26.3 26.3 0 0 0-8.11 5.87c-5.8 5.82-9.35 14.1-11.85 21.79a92.66 92.66 0 0 0-2.85 11.63 63 63 0 0 1 2.56 9.25 33.11 33.11 0 0 1 .67 10.69 11.54 11.54 0 0 1-2.84 6.39 10.19 10.19 0 0 1-1.82 1.57c.09.89.18 1.79.29 2.69 3.33 0 6.66.09 10 .27a8 8 0 0 1 1-5c.59-1 1.32-1.89 2-2.81a9.29 9.29 0 0 0 1.55-3 23.45 23.45 0 0 0 .37-6.17 9.85 9.85 0 0 1 1.68-6.09 19.79 19.79 0 0 1 5.42-4.54c1.36-.91 2.94-1.85 3.4-3.52a2.07 2.07 0 0 0 0-1.38 1.54 1.54 0 0 0-.35-.52.18.18 0 0 1-.17 0 .23.23 0 0 1-.07-.11Z" class="color00c6b3 svgShape"/><ellipse cx="78.41" cy="140.11" fill="#ffaa40" rx="10.61" ry="10.56" class="colorffaa40 svgShape"/><circle cx="78.62" cy="139.56" r="8.67" fill="#ffaa40" class="colorffaa40 svgShape"/><circle cx="78.62" cy="139.56" r="8.34" fill="#ffffff" class="colorfff svgShape"/><path fill="#494e6c" fill-rule="evenodd" d="M78.14 138.2a.18.18 0 0 0 .24 0l2-2a1.13 1.13 0 0 1 1.6 0 1.08 1.08 0 0 1 .34.79 1.1 1.1 0 0 1-.34.8l-2 2a.17.17 0 0 0 0 .23l2 2a1.08 1.08 0 0 1 .34.79 1.1 1.1 0 0 1-.34.8 1.13 1.13 0 0 1-1.6 0l-2-2a.18.18 0 0 0-.24 0l-2 2a1.14 1.14 0 0 1-.8.33 1.15 1.15 0 0 1-.8-.33 1.14 1.14 0 0 1-.33-.8 1.11 1.11 0 0 1 .33-.79l2-2a.15.15 0 0 0 0-.23l-2-2a1.14 1.14 0 0 1-.33-.8 1.11 1.11 0 0 1 .33-.79 1.15 1.15 0 0 1 .8-.33 1.14 1.14 0 0 1 .8.33Z" class="color494e6c svgShape"/><path fill="#ffffff" fill-rule="evenodd" d="M122.19 101.44a.18.18 0 0 0-.1-.16.17.17 0 0 0-.18 0l-24.8 24.81a.13.13 0 0 0 0 .12v5.42a.17.17 0 0 0 .16.17H122a.17.17 0 0 0 .16-.17Z" class="colorfff svgShape"/><path fill="#cdd2fc" fill-rule="evenodd" d="M120.94 102.78v28.72H97.26v-5Z" class="colorcdd2fc svgShape"/><path fill="#ffffff" fill-rule="evenodd" d="M89.58 130.06a.15.15 0 0 0 .23 0l36.72-36.71a.16.16 0 0 0 0-.24L125 91.59a.15.15 0 0 0-.23 0l-36.72 36.72a.17.17 0 0 0 0 .23Z" class="colorfff svgShape"/><path fill="#494e6c" fill-rule="evenodd" d="m89.48 130.5-1.29-1.29 36.48-36.48L126 94Z" class="color494e6c svgShape"/><path fill="#ffffff" fill-rule="evenodd" d="M117.74 109.46a.17.17 0 0 0-.28-.12l-11.3 11.3a.16.16 0 0 0 0 .11v2.47a.17.17 0 0 0 .17.17h11.29a.17.17 0 0 0 .17-.17ZM118.32 95a.16.16 0 0 0 .05-.11v-3.18a.17.17 0 0 0-.17-.17H93.39a.16.16 0 0 0-.16.17v28a.18.18 0 0 0 .1.15.16.16 0 0 0 .18 0Z" class="colorfff svgShape"/><path fill="#cdd2fc" fill-rule="evenodd" d="m117.24 96-23.68 23.7V93.13h23.68Z" class="colorcdd2fc svgShape"/><path fill="#ffffff" fill-rule="evenodd" d="M103.47 96.57a.16.16 0 0 0-.17-.16h-8.17a.17.17 0 0 0-.17.16v10.66a.18.18 0 0 0 .17.17h8.17a.17.17 0 0 0 .17-.17ZM224.23 87.9c0-4.36-4.62-7.93-10.34-7.93s-10.34 3.57-10.34 7.93a7.35 7.35 0 0 0 3.68 6.1l-.48 4.29a.69.69 0 0 0 .35.7.71.71 0 0 0 .78 0l4.2-3.2a13.64 13.64 0 0 0 1.81.12c5.72-.08 10.34-3.65 10.34-8.01Z" class="colorfff svgShape"/><path fill="#cdd2fc" fill-rule="evenodd" d="M223.29 88.62c0 4.21-4.5 7.6-10 7.6a14 14 0 0 1-1.83-.13.13.13 0 0 0-.12 0l-4.26 3.24a.4.4 0 0 1-.42 0 .36.36 0 0 1-.18-.37l.5-4.39a.15.15 0 0 0-.08-.16 7.06 7.06 0 0 1-3.62-5.85c0-4.21 4.5-7.6 10-7.6s10.01 3.45 10.01 7.66Z" class="colorcdd2fc svgShape"/><path fill="#ffffff" fill-rule="evenodd" d="M212.45 94.28a1.47 1.47 0 0 0 1-.33 1.14 1.14 0 0 0 .44-.94 1.19 1.19 0 0 0-.41-.91 1.48 1.48 0 0 0-1-.35 1.5 1.5 0 0 0-1 .35 1.17 1.17 0 0 0-.48.9 1.12 1.12 0 0 0 .44.94 1.55 1.55 0 0 0 1.01.34Zm-4.19-8.23a1 1 0 0 0 .37.75 1.28 1.28 0 0 0 .89.34 1.21 1.21 0 0 0 1.22-.94 3 3 0 0 1 .69-1.14 1.71 1.71 0 0 1 1.22-.37 1.75 1.75 0 0 1 1.16.37 1.07 1.07 0 0 1 .43.87.88.88 0 0 1-.13.47 2.11 2.11 0 0 1-.37.43c-.15.14-.41.34-.75.61a11.14 11.14 0 0 0-1 .83 2.8 2.8 0 0 0-.6.84 2.66 2.66 0 0 0-.23 1.14 1.08 1.08 0 0 0 .35.87 1.23 1.23 0 0 0 .83.29 1.19 1.19 0 0 0 .76-.23 1.1 1.1 0 0 0 .39-.67c.06-.23.1-.39.13-.49a1.17 1.17 0 0 1 .34-.53 4.93 4.93 0 0 1 .44-.39l1.43-1.1a3.75 3.75 0 0 0 .71-.86 2.28 2.28 0 0 0 .31-1.18 2.58 2.58 0 0 0-.54-1.57 3.49 3.49 0 0 0-1.48-1.12 5.5 5.5 0 0 0-2.18-.41 5.19 5.19 0 0 0-2.33.49 3.93 3.93 0 0 0-1.53 1.24 2.59 2.59 0 0 0-.53 1.46Z" class="colorfff svgShape"/><path fill-rule="evenodd" d="M147.49 108.78c-1.4.62-2.8 1.21-4.13 1.89-2.8 1.43-5.27 3.24-6.67 6.43-1.87 4.24-1 8.74 2.83 11.46a6.23 6.23 0 0 0 3 1.31c-.39 1.35-.79 2.72-1.12 4.12a23.12 23.12 0 0 0-5.56.86c-2.93.6-5.85 1.37-8.71 2.26-8.49 2.65-16.66 6.82-24.48 11-5.57 3-11.47 6-16 10.49a17.19 17.19 0 0 0-4.43 6.86 7.5 7.5 0 0 0 1.58 7.65 8.82 8.82 0 0 0 2.2 1.79 12.23 12.23 0 0 0 3.57 1.25c5.74 1.13 12-1 17.1-3.79a1.55 1.55 0 0 0 .13 1 66.45 66.45 0 0 0-5.64 4c-.49.34-1.07.71-1.59 1.15a3.62 3.62 0 0 0-1.2 1.61 12.4 12.4 0 0 0-.3 4.34 10.73 10.73 0 0 1 .15 1.51H89v4.26a.15.15 0 0 0 .13.16l5.32 1h-4.34V196a.17.17 0 0 0 .13.16l5.31 1h-4.32v1.45a84 84 0 0 0-13.28.27 34.19 34.19 0 0 0-5.7.71 3.33 3.33 0 0 0-1.85 1.06c-.19.27-.07.55.26.78a8.5 8.5 0 0 0 2.07.77c2.41.81 4.93 1.31 7.34 2.1a7.21 7.21 0 0 1 1.92.83l.11.12a.07.07 0 0 1 0 .06s0 .06-.08.09a7.36 7.36 0 0 1-2.77 1.07c-1.66.35-3.51.47-4.78.65a149 149 0 0 0-15 2.5 15.66 15.66 0 0 0-4.75 1.82 1.74 1.74 0 0 0-.9 1.44 1.78 1.78 0 0 0 .68 1.15c2.39 2.12 6.74 2.8 9.86 3.4a212.8 212.8 0 0 0 25.34 2.83c32.25 2.3 64.86 2.93 97.21 2.64 14-.12 28.65-.41 42.3-3.64a52.66 52.66 0 0 0 8.92-2.55 9.83 9.83 0 0 0 3.06-2 3.21 3.21 0 0 0 .92-1.72 1.66 1.66 0 0 0-.65-1.51 7.2 7.2 0 0 0-2.3-1.21c-3.86-1.38-8.22-1.43-12.31-1.73a20.12 20.12 0 0 1-3.47-.29 2.7 2.7 0 0 1-.61-.22.61.61 0 0 1-.28-.27l.09-.09a2.24 2.24 0 0 1 .58-.28 23.77 23.77 0 0 1 3.76-.8c3.73-.59 7.55-.81 11.25-1.52a9.11 9.11 0 0 0 2.34-.68 1.93 1.93 0 0 0 1.08-1.15 1.49 1.49 0 0 0-.34-1.36 5.1 5.1 0 0 0-1.42-1.17c-2.77-1.66-8-2.85-9.24-3.08-3.07-.59-6.17-1-9.3-1.36a5.55 5.55 0 0 1 1.34-1 29.61 29.61 0 0 1 3-1.29 8 8 0 0 0 2.8-1.71 16.84 16.84 0 0 0 2.82-4.86 7.3 7.3 0 0 1 3.88-3.94c2.09-.86 4.66-.91 7.06-1a19.9 19.9 0 0 0 2.68-.21 4.17 4.17 0 0 0 2.29-1.06 1.9 1.9 0 0 0 .6-1.06 2.07 2.07 0 0 0-.47-1.49 23.28 23.28 0 0 1-1.77-2.35 3 3 0 0 1 .58-3.21c1.67-2.11 4.63-3.11 7.42-3.9a21.37 21.37 0 0 0 2.94-.84 2.09 2.09 0 0 0 1.32-1.31 2.41 2.41 0 0 0-.56-1.9 27.36 27.36 0 0 0-2.21-2.43c-1.71-1.88-2.28-3.71-1.27-5.64 1.23-2.34 4.07-3.65 6.7-4.63a13.12 13.12 0 0 0 2.38-1 1.58 1.58 0 0 0 .93-1.29c0-.48-.39-.84-.93-1.09a8.06 8.06 0 0 0-2.17-.53 30.68 30.68 0 0 0-10.5.81c-7.83 1.84-14.47 6.56-19.88 11.4l-.24-.18a19.93 19.93 0 0 1-2.45-1.58 4.26 4.26 0 0 1-.82-3.75c.55-3.08 2.64-5.66 4.67-7.93a20.85 20.85 0 0 0 2.14-2.38 2.82 2.82 0 0 0 .57-2 2.72 2.72 0 0 0-1.24-1.69 21.35 21.35 0 0 0-2.85-1.45 5.45 5.45 0 0 1-3.37-5.35c.08-3.11 1.94-6 3.78-8.35a15.44 15.44 0 0 0 1.6-2.24 2.15 2.15 0 0 0 .25-1.78 1.16 1.16 0 0 0-1.23-.67 6.2 6.2 0 0 0-2.07.55 27.85 27.85 0 0 0-8.51 6.21c-6 6.14-9.75 14.86-12.36 23a97.08 97.08 0 0 0-2.88 11.67c-3.39-9.22-8.91-17.81-16.53-23.82a24.47 24.47 0 0 0-10.54-4.76c-.94-.19-3.71-.54-4.49-.64a10.56 10.56 0 0 0 .91-1.69 8.06 8.06 0 0 1 1-1.73c1.46-1.81 3.66-2.8 5.5-4.14a11.41 11.41 0 0 0 4.72-7.24 10.47 10.47 0 0 0 .08-3.11c-.42-3.42-2.78-6.51-6.36-6.86a9.55 9.55 0 0 0-4.25.76 7.38 7.38 0 0 0-1.35.67 2.4 2.4 0 0 0-.25.23 1.59 1.59 0 0 1-.13.13.17.17 0 0 0-.1 0 11.55 11.55 0 0 1-1.68-1.4c-1.62-1.62-3-3.67-4.61-5.46a11.37 11.37 0 0 0-5.95-3.88c-4.7-1-8.85 1.47-11.66 5.07a12.65 12.65 0 0 0-1.76 3 7.21 7.21 0 0 0-.29.71s-.03.1-.03.12Zm-56.27 90.29a84.87 84.87 0 0 0-13.25.27c-1 .11-3.07.16-4.82.5a7.11 7.11 0 0 0-1.79.57 1.92 1.92 0 0 0-.7.56.12.12 0 0 0 0 .15.57.57 0 0 0 .18.16 8.11 8.11 0 0 0 2 .74c2.4.8 4.92 1.3 7.33 2.09a7.56 7.56 0 0 1 2 .9.55.55 0 0 1 .23.47.44.44 0 0 1-.21.32 7.8 7.8 0 0 1-2.91 1.12c-1.66.36-3.52.48-4.8.66a151.71 151.71 0 0 0-15 2.49 15.59 15.59 0 0 0-4.63 1.76c-.47.35-.79.73-.76 1.16a1.43 1.43 0 0 0 .57.92c2.35 2.08 6.64 2.73 9.71 3.33 8.28 1.6 16.86 2.21 25.29 2.82 32.25 2.29 64.85 2.92 97.19 2.64 14-.12 28.59-.41 42.23-3.64a50.92 50.92 0 0 0 8.85-2.53 10.22 10.22 0 0 0 2.58-1.52 3.18 3.18 0 0 0 1.21-1.89 1.35 1.35 0 0 0-.54-1.21 7 7 0 0 0-2.19-1.15c-3.84-1.37-8.17-1.41-12.23-1.71a21 21 0 0 1-3.52-.3 2.38 2.38 0 0 1-.8-.32.84.84 0 0 1-.32-.36.4.4 0 0 1 .06-.39 1.4 1.4 0 0 1 .33-.26 19.54 19.54 0 0 1 4.3-1c3.73-.59 7.55-.8 11.25-1.51a9.27 9.27 0 0 0 2.25-.66 1.62 1.62 0 0 0 .91-.93 1.2 1.2 0 0 0-.29-1.08 4.66 4.66 0 0 0-1.32-1.08c-2.74-1.64-7.93-2.82-9.13-3-13.45-2.56-27.6-2.4-41.26-1.79-10.32.46-45.6 1.64-50.26 2.21a8 8 0 0 0 1.79 2.6c3.66 3.62 4.2 4.69 8.24 7.9a13.49 13.49 0 0 1 2.42 2.42 3.55 3.55 0 0 1 .81 1.95.36.36 0 0 1-.27.38 2.33 2.33 0 0 1-1 0c-1.06-.11-2.09-.36-3.14-.53a45.89 45.89 0 0 0-8.2-.46c-5.34.06-10.67.34-16 .2-1.38 0-2.76-.07-4.13-.16a4.42 4.42 0 0 1-1.78-.3.83.83 0 0 1-.44-1 4.68 4.68 0 0 1 .68-1.36 20.91 20.91 0 0 0 2.37-4.91H98.43l-7.09-1.85a.17.17 0 0 1-.12-.16Zm27.78-1.71c0 .07.11.14.16.22A8.71 8.71 0 0 1 121 204a16.68 16.68 0 0 1-2.68 6.36 6.14 6.14 0 0 0-.57 1c-.12.32-.13.65.21.83a4.1 4.1 0 0 0 1.64.26c1.37.08 2.75.12 4.12.16 5.34.14 10.66-.15 16-.2a46.51 46.51 0 0 1 8.26.46c1.05.17 2.08.41 3.13.53a2.61 2.61 0 0 0 .71 0h.1a.07.07 0 0 0 0-.06 3.31 3.31 0 0 0-.75-1.77 13.09 13.09 0 0 0-2.36-2.35c-4-3.22-4.59-4.29-8.27-7.92a7.4 7.4 0 0 1-2.34-6.34c.31-2.12 1.46-4.32 2-6.48a5.55 5.55 0 0 0-1.67-6 7.52 7.52 0 0 0-2-1.29 14.75 14.75 0 0 0-5.38-.6 82.68 82.68 0 0 0-9.13.69.16.16 0 0 1-.09 0 .08.08 0 0 1-.07 0c-3.61.46-7.18 1.08-9.85 1.71h-.07c-.49.25-1 .47-1.52.68s-.83.3-1.25.43h3.25c1.42 0 2.08.94 2.42 2.28.37 1.51.31 3.56.54 5.25a.15.15 0 0 1 0 .11.15.15 0 0 1 0 .07 7.2 7.2 0 0 0 .21 1 6.75 6.75 0 0 0 1.46 2.48c.53.63 1.12 1.23 1.64 1.87a.17.17 0 0 1 .17.17.19.19 0 0 1 .14.03Zm.18-12.15a1.05 1.05 0 0 0 .46-.16c.34-.19.75-.54 1-.64a24.76 24.76 0 0 1 3.72-1.37 26.54 26.54 0 0 1 2.78-.62c.53-.09 1-.15 1.58-.2a6 6 0 0 1 2.06.24.69.69 0 0 1 .19.12.12.12 0 0 1 0 .08.26.26 0 0 1-.06.15 1.46 1.46 0 0 1-.28.27 6.33 6.33 0 0 1-.61.39c-1.84 1.08-3.87 1.82-5.7 2.93a9.48 9.48 0 0 0-1.77 1.32 5.34 5.34 0 0 0-1.42 2.18 1.48 1.48 0 0 0 .48 1.64 2.13 2.13 0 0 0 1.21.42 6.87 6.87 0 0 0 1.86-.23 39.06 39.06 0 0 0 6.44-2.51 9.46 9.46 0 0 1 2.05-.74 1.36 1.36 0 0 1 1.18.2 1.3 1.3 0 0 1 .25 1.22 8.8 8.8 0 0 1-1.61 3.31c-1.18 1.73-2.8 3.53-4.12 5.48a11.09 11.09 0 0 0-2.32 6.38 3.65 3.65 0 0 0 5.35 3.22 6 6 0 0 0 3.2-3.92.16.16 0 0 0-.11-.21.17.17 0 0 0-.21.1 5.68 5.68 0 0 1-3 3.73 3.33 3.33 0 0 1-4.89-2.92 10.81 10.81 0 0 1 2.26-6.19c1.32-1.95 2.95-3.75 4.13-5.48a9.31 9.31 0 0 0 1.66-3.44 1.41 1.41 0 0 0-1.82-1.81 9.93 9.93 0 0 0-2.12.76 38.39 38.39 0 0 1-6.38 2.5 7.09 7.09 0 0 1-1.77.22 1.79 1.79 0 0 1-1-.35 1.17 1.17 0 0 1-.37-1.3 5 5 0 0 1 1.33-2 9.21 9.21 0 0 1 1.72-1.27c1.82-1.11 3.85-1.85 5.69-2.93a5.42 5.42 0 0 0 .64-.42c.36-.27.48-.51.47-.69a.58.58 0 0 0-.42-.49 6.3 6.3 0 0 0-2.23-.27c-.54 0-1.07.11-1.6.2a26.75 26.75 0 0 0-2.82.63 24 24 0 0 0-3.77 1.39c-.19.09-.53.36-.84.56a2.11 2.11 0 0 1-.32.18s-.08 0-.11 0a.17.17 0 0 0-.17.17.16.16 0 0 0 .08.17Zm15.33 23.22a7.59 7.59 0 0 0 1-3.11.16.16 0 0 0-.12-.2.18.18 0 0 0-.2.13 7.4 7.4 0 0 1-.94 3 .16.16 0 0 0 0 .23.17.17 0 0 0 .21-.05Zm3-1.62a.17.17 0 0 0 .14.13.18.18 0 0 0 .19-.14.32.32 0 0 0-.05-.18c-.08-.14-.29-.41-.33-.47l-.88-1.59a.18.18 0 0 0-.23-.07.17.17 0 0 0-.06.23c.29.53.59 1.06.88 1.6Zm-46-8a.17.17 0 0 1 .06.15.17.17 0 0 1-.06.12v4.08l6.98 1.84h22a7.87 7.87 0 0 0 .18-1 8.11 8.11 0 0 0-.82-4.65H98.48l-6.93-1.8Zm22.62 2.8h-.36c-.5 0-1 .08-1.49.11-1.24.08-2.47.19-3.7.3l-2.62.2h-.69a1.18 1.18 0 0 0-.49.14.2.2 0 0 0-.09.12.22.22 0 0 0 0 .19.69.69 0 0 0 .12.14l.12.1c.12.14.18.31 0 .45a.81.81 0 0 1-.44.2 5.32 5.32 0 0 1-.56.06 20 20 0 0 1-2.32 0 .16.16 0 0 0-.17.16.17.17 0 0 0 .16.17 20.64 20.64 0 0 0 2.36 0 4.84 4.84 0 0 0 .73-.09 1 1 0 0 0 .47-.26.56.56 0 0 0 .19-.37.75.75 0 0 0-.2-.54l-.12-.1h.89l2.63-.2c1.23-.11 2.46-.22 3.69-.3.5 0 1-.06 1.5-.11a3.92 3.92 0 0 0 .42 0 .16.16 0 0 0 .13-.2.16.16 0 0 0-.19-.13Zm-3 1.23h-.7c-.75 0-1.5.1-2.24.18a.17.17 0 0 0-.15.19.16.16 0 0 0 .18.14c.74-.08 1.49-.13 2.23-.18h.61a.46.46 0 0 0 .28-.1.16.16 0 0 0-.21-.25Zm-15.42.16a4.35 4.35 0 0 0 .89.14l1.39.21a.17.17 0 0 0 .19-.15.16.16 0 0 0-.18-.2c-.47-.07-.93-.15-1.4-.21a5.59 5.59 0 0 1-.82-.12.16.16 0 0 0-.11.31Zm-1.93-1.46a.17.17 0 0 0-.23 0 .16.16 0 0 0 0 .23.35.35 0 0 0 .16.09 1.66 1.66 0 0 0 .26.05l1 .19 3.39.64a.19.19 0 0 0 .2-.14.18.18 0 0 0-.14-.19l-3.42-.69-1-.19h-.16Zm20.31.16a.13.13 0 0 0 0 .12.16.16 0 0 1 0-.17Zm-20.49-1.6a27.68 27.68 0 0 0 4.81 1.34 33.3 33.3 0 0 0 6.77 0c2.45-.14 4.9-.2 7.36-.29a.15.15 0 0 0 .15-.17.16.16 0 0 0-.17-.16c-2.45.08-4.9.15-7.36.29a33.34 33.34 0 0 1-6.7 0 27 27 0 0 1-4.75-1.33.17.17 0 0 0-.21.1.17.17 0 0 0 .1.17Zm41.86-11.23a.58.58 0 0 1 .15.24 1.84 1.84 0 0 1 .07.43 6.39 6.39 0 0 1-.08 1.34c-.28 2.47-1.75 3.83-2.93 5.87a6 6 0 0 0-.68 2 .65.65 0 0 0 .2.6.75.75 0 0 0 .77 0l.38-.2a5.35 5.35 0 0 0 .67-.47.17.17 0 0 0 0-.24.16.16 0 0 0-.23 0 5.47 5.47 0 0 1-.63.44 1.59 1.59 0 0 1-.34.18 1 1 0 0 1-.32.09.21.21 0 0 1-.12 0s0 0 0-.1a.52.52 0 0 1 0-.22 5.5 5.5 0 0 1 .64-1.82c1.2-2.08 2.69-3.48 3-6a6.82 6.82 0 0 0 0-1.67 1 1 0 0 0-.31-.64.17.17 0 0 0-.21.26Zm-38.12 8.63h-4.66l5.87 1.5h21.07a9.73 9.73 0 0 0-.77-1.2l-.25-.33H97.34Zm43.95-63.13a23.27 23.27 0 0 0-5.42.85c-2.92.6-5.83 1.37-8.68 2.26-8.47 2.64-16.62 6.8-24.43 11-5.54 3-11.41 6-15.93 10.44a16.7 16.7 0 0 0-4.35 6.72A7.18 7.18 0 0 0 84 172.9a8.78 8.78 0 0 0 2.22 1.71 12.21 12.21 0 0 0 3.48 1.22c5.75 1.13 12-1.1 17.13-3.91a16.51 16.51 0 0 1 1.27-2.85c.47-.95 1-1.91 1.42-2.88a2.59 2.59 0 0 1-.26-1.49c0-.38.1-.76.15-1.14a8.92 8.92 0 0 1-.73.71 17 17 0 0 1-2.82 2c-3.52 1.86-7.59 2.48-11.51 2.76-.59 0-1.18.07-1.77.06a4.24 4.24 0 0 1-3 .79A2.21 2.21 0 0 1 88 169a2.1 2.1 0 0 1-.37-1.29 3.63 3.63 0 0 1 .61-1.82 11.84 11.84 0 0 1 1.88-2.17c1.91-1.81 4.11-3.29 6-5.15 1.41-1.39 2.46-3.12 3.92-4.45a5 5 0 0 1 2.92-1.33 2.33 2.33 0 0 1 1 .1 2.05 2.05 0 0 1 .43.26l.29-.05c1.25-.33 2.48-.84 3.73-1.17a24.12 24.12 0 0 1 5.76-1.09c4.26-.05 9 2.3 10.62 6.41s.46 9.06-2.09 12.66a27 27 0 0 1-2.4 2.9 7.29 7.29 0 0 1 1.11 2.78 28.52 28.52 0 0 1 .62 5.3 86.8 86.8 0 0 1 9.07-.69 15.33 15.33 0 0 1 5.52.64 8.19 8.19 0 0 1 2.07 1.34 5.88 5.88 0 0 1 1.77 6.38c-.53 2.15-1.67 4.33-2 6.44a6.55 6.55 0 0 0 .33 3.14c4.33-.57 40-1.76 50.38-2.22l3.24-.14a16.29 16.29 0 0 1-.14-2.85 14 14 0 0 1-7.27-9.73.17.17 0 0 1 .13-.2h.05c-.19-.18-.37-.38-.56-.57-2.58-2.77-4.14-6.21-6.34-9.25-1.5-2.06-3.55-3.51-5.21-5.4-1.24-1.42-1.95-3.19-3.1-4.68a5.5 5.5 0 0 0-2.78-2.09c-1.21-.35-2.52-.14-3.74-.45a3 3 0 0 1-1.4-.75.92.92 0 0 1-.16-1.08 2 2 0 0 1 1-.94 4.88 4.88 0 0 1 1.33-.41 2.12 2.12 0 0 1-.23-.8 6.38 6.38 0 0 1 .17-1.77c.06-.28.12-.56.2-.84v-.13l-.18-.06c-.46-.13-1-.22-1.46-.36a3.54 3.54 0 0 1-1.4-.69 1.27 1.27 0 0 1-.46-.88 1.18 1.18 0 0 1 .26-.77 2.13 2.13 0 0 1 1-.75 6.12 6.12 0 0 1 2.77-.23c0-.25.07-.5.11-.75 0-.09 0-.19.05-.28l-.81-.16a3.5 3.5 0 0 1-1.61-.77 1.44 1.44 0 0 1-.49-1.31 1.72 1.72 0 0 1 .81-1.14 5 5 0 0 1 2.93-.52v-.23l.09-.68c.1-.69.2-1.37.32-2.05a41.89 41.89 0 0 1 1.11-4.84c0-.08 0-.16.07-.24a32.48 32.48 0 0 1-6.37 7.86 4.17 4.17 0 0 1 .64 3.47c-1 7.37-9.07 8.29-12 8.16a11.22 11.22 0 0 0-8.3 2.57 8.28 8.28 0 0 0-1.81 2.27 6.18 6.18 0 0 0-.77 4c.47 2.55 2.8 3.28 5 2.79a3.2 3.2 0 0 1 1.84-2.38 1.88 1.88 0 0 1 1.86.31l.21.18c.79-.5 1.59-1 2.4-1.46 2-1.1 4.12-1.71 6.27-.47a5.59 5.59 0 0 1 1.26 1 4.94 4.94 0 0 1 1.1 2.07 5.54 5.54 0 0 1-1 4.62 3.83 3.83 0 0 1-4.34 1.43 6 6 0 0 1-3-2.44c-.74-1.07-1.33-2.29-2-3.31a6.49 6.49 0 0 0-.78-1 14.77 14.77 0 0 1-3.17 1.64l-.42.12a22.47 22.47 0 0 0-.15 5.62 7.58 7.58 0 0 1-.08 1.43 2 2 0 0 1-.67 1.31 2 2 0 0 1-1.11.44 5.28 5.28 0 0 1-1.94-.26.15.15 0 0 1-.11-.2.17.17 0 0 1 .21-.12c1.38.41 3 .55 3.29-1.22a7.1 7.1 0 0 0 .07-1.38 24.43 24.43 0 0 1 .13-5.54c-2.35.46-4.78-.39-5.27-3.09a6.56 6.56 0 0 1 .81-4.22 8.63 8.63 0 0 1 1.88-2.37 11.54 11.54 0 0 1 8.53-2.65 15.35 15.35 0 0 0 6.52-1.23 8.21 8.21 0 0 0 5.09-6.65 3.87 3.87 0 0 0-.56-3.2q-.65.57-1.32 1.11c1.86 1.82.93 4.67-1.1 6.13-2.33 1.67-5.62 1.91-8.38 1.5-2.21-.34-4.84-1.08-6.5-2.67a7.89 7.89 0 0 1-1.52-2 1.74 1.74 0 0 1-.24-.94 1.93 1.93 0 0 1 .08-.27.6.6 0 0 1 .07-.14.25.25 0 0 1 .12-.07 9.58 9.58 0 0 1-.94-2.12c-1-3.76-.58-7.67.29-11.44Zm-54.46 61.49a.77.77 0 0 0 0 .48 7.89 7.89 0 0 0 .5 1 .16.16 0 0 0 .22.07.16.16 0 0 0 .07-.22c-.07-.15-.28-.49-.42-.8a2.13 2.13 0 0 1-.09-.27.23.23 0 0 1 0-.14.19.19 0 0 0-.11-.21.18.18 0 0 0-.17.09Zm1.5-.88a.17.17 0 0 0-.23-.23.27.27 0 0 0-.1.2 4.81 4.81 0 0 0 0 .5c0 .59.08 1.17.14 1.75a.16.16 0 0 0 .17.16.17.17 0 0 0 .15-.18c0-.59-.09-1.17-.13-1.74v-.32a.76.76 0 0 1 0-.12Zm27.1-1.8h-18l-7-1.28v3.92l6.93 1.29h20.94c-.47-.56-1-1.1-1.45-1.65a7.73 7.73 0 0 1-1.42-2.28Zm-13.27 2.73a1.25 1.25 0 0 1-.27 0h-.51c-.85.05-1.71.14-2.56.14a.16.16 0 0 0-.17.17.16.16 0 0 0 .17.16c.86 0 1.72-.08 2.58-.14a6.37 6.37 0 0 0 .81 0 .3.3 0 0 0 .21-.12.17.17 0 0 0 0-.23.18.18 0 0 0-.26.02Zm118.68.46a5.94 5.94 0 0 1 1.59-1.26 29.48 29.48 0 0 1 3.07-1.31 7.82 7.82 0 0 0 2.68-1.63 17.06 17.06 0 0 0 2.82-4.77 7.55 7.55 0 0 1 4.05-4.11c2.12-.87 4.73-.93 7.17-1a21 21 0 0 0 2.64-.21 3.86 3.86 0 0 0 2.11-1 1.64 1.64 0 0 0 .5-.87A1.81 1.81 0 0 0 247 179a21.64 21.64 0 0 1-1.8-2.39 3.37 3.37 0 0 1 .62-3.57c1.7-2.15 4.73-3.2 7.59-4a19.84 19.84 0 0 0 2.89-.82 1.79 1.79 0 0 0 1.14-1.09 2.11 2.11 0 0 0-.52-1.62 24.19 24.19 0 0 0-2.17-2.4c-1.83-2-2.4-4-1.33-6 1.27-2.41 4.17-3.78 6.89-4.79a13.24 13.24 0 0 0 2.32-.95c.44-.26.77-.58.76-1s-.32-.6-.73-.78a7.63 7.63 0 0 0-2.07-.51 30 30 0 0 0-10.38.81c-7.77 1.82-14.35 6.5-19.72 11.3a1.93 1.93 0 0 1 .42.63 2.44 2.44 0 0 1 0 1.66c-.5 1.83-2.19 2.88-3.66 3.87-2 1.34-4.13 2.69-5.53 4.67a10.06 10.06 0 0 0-1.68 6.18 25.11 25.11 0 0 1-.4 6.56 9.92 9.92 0 0 1-1.65 3.22c-.68 1-1.44 1.87-2 2.92a8.23 8.23 0 0 0-1 5.07c1.94.03 3.9.2 5.85.4Zm-126.17-.87h-.07a.17.17 0 0 0 0 .33 2.19 2.19 0 0 0 .31.05l.92.17a.18.18 0 0 0 .2-.14.18.18 0 0 0-.14-.19l-.92-.17ZM230 161.14a1.56 1.56 0 0 0-.2-.16 20.62 20.62 0 0 1-2.49-1.61 4.62 4.62 0 0 1-.92-4c.56-3.15 2.68-5.79 4.76-8.1a21.28 21.28 0 0 0 2.1-2.35 2.46 2.46 0 0 0 .52-1.77 2.39 2.39 0 0 0-1.1-1.48 20.62 20.62 0 0 0-2.81-1.42 5.76 5.76 0 0 1-3.55-5.66c.08-3.18 2-6.1 3.84-8.54a14.55 14.55 0 0 0 1.57-2.19 1.88 1.88 0 0 0 .24-1.51.85.85 0 0 0-.91-.46 5.78 5.78 0 0 0-2 .52 27.65 27.65 0 0 0-8.4 6.15c-6 6.09-9.69 14.77-12.28 22.82a97.81 97.81 0 0 0-3 12.19 67.58 67.58 0 0 1 2.64 9.69 34.75 34.75 0 0 1 .7 11.19 12.14 12.14 0 0 1-2.94 6.7 11.37 11.37 0 0 1-1.89 1.63c.09.94.18 1.88.3 2.83q5.18 0 10.34.28a8.58 8.58 0 0 1 1.06-5.22 35 35 0 0 1 2.06-2.94 9.61 9.61 0 0 0 1.6-3.12 24.85 24.85 0 0 0 .39-6.47 10.26 10.26 0 0 1 1.74-6.37c1.43-2 3.6-3.4 5.61-4.75 1.41-.95 3-1.94 3.53-3.69a2.12 2.12 0 0 0 0-1.44 1.57 1.57 0 0 0-.37-.55.18.18 0 0 1-.17-.05.25.25 0 0 1 .03-.15ZM203.68 193a10.94 10.94 0 0 1-10.37.51l-.65-.3a13.14 13.14 0 0 0 .14 2.67c3.7-.14 7.43-.23 11.16-.23-.11-.94-.2-1.82-.28-2.65Zm-94 1.67a2.17 2.17 0 0 1-.45 0c-.62.08-1.25.13-1.87.18-2.55.22-5.1.27-7.66.41a.15.15 0 0 0-.15.17.17.17 0 0 0 .17.16c2.56-.14 5.12-.19 7.67-.41.63-.05 1.26-.1 1.88-.18a2.06 2.06 0 0 0 .54-.08.25.25 0 0 0 .16-.16.17.17 0 0 0-.13-.2.14.14 0 0 0-.13.06Zm-17.27-.08a.17.17 0 0 0-.2 0 .17.17 0 0 0 0 .24.24.24 0 0 0 .15.05h.19c.2 0 .41 0 .61.07.83.11 1.67.23 2.5.36a.17.17 0 0 0 .05-.33c-.84-.13-1.67-.25-2.51-.36l-.62-.08Zm-3.94-2a1.67 1.67 0 0 1 .32.88 9.56 9.56 0 0 1 0 1.59.17.17 0 0 0 .33 0 10.29 10.29 0 0 0 0-1.65 2 2 0 0 0-.39-1 .36.36 0 0 0-.28-.15.29.29 0 0 0-.25.11 1.07 1.07 0 0 0-.22.31.19.19 0 0 0 0-.08c0-.55-.16-1.1-.24-1.64a14.14 14.14 0 0 1-.27-3.83 3.56 3.56 0 0 1 2-2.91 7.52 7.52 0 0 1 4.53-.2c.32.07.93.32 1.47.42a1.34 1.34 0 0 0 1-.11 1.14 1.14 0 0 0 .4-.9 11.58 11.58 0 0 0-.11-1.43v-.67a.17.17 0 0 0-.18-.27.27.27 0 0 0-.15.22 4 4 0 0 0 0 .74 10.9 10.9 0 0 1 .11 1.39.83.83 0 0 1-.27.65.56.56 0 0 1-.3.1 2 2 0 0 1-.47-.05c-.55-.1-1.16-.35-1.48-.41a7.82 7.82 0 0 0-4.74.22 3.86 3.86 0 0 0-2.09 3.08 14.4 14.4 0 0 0 .27 3.92c.08.54.19 1.08.24 1.62v.46a.37.37 0 0 0 .12.25.15.15 0 0 0 .21 0 .29.29 0 0 0 .07-.08 1.54 1.54 0 0 0 .1-.19 1.64 1.64 0 0 1 .24-.43Zm25.51 1.8c-.73.14-1.47.25-2.2.4a.17.17 0 0 0-.13.2.16.16 0 0 0 .2.12c.73-.14 1.46-.25 2.19-.39a2.87 2.87 0 0 0 .6-.15.23.23 0 0 0 .14-.22.27.27 0 0 0-.12-.17 1.3 1.3 0 0 0-.37-.09 10.54 10.54 0 0 0-1.12-.08c-1.65-.07-3.32-.09-5-.09-2.15 0-4.32 0-6.47.16a30.85 30.85 0 0 1-6 0c-.88-.11-1.74-.28-2.6-.43-.17 0-.43 0-.66-.08a.76.76 0 0 1-.33-.11.16.16 0 0 0-.23 0 .16.16 0 0 0 0 .23 1.3 1.3 0 0 0 .46.17c.23 0 .49.05.66.08.87.15 1.73.32 2.61.43a32.39 32.39 0 0 0 6.07 0c2.15-.12 4.3-.16 6.45-.16 1.66 0 3.32 0 5 .08.32-.02.6-.01.87.02Zm-25.7.71Zm85.13-61a4 4 0 0 1-2.16 1.15 8.12 8.12 0 0 1 1.11.3 2.46 2.46 0 0 1 .65.32.81.81 0 0 1 .26.31 2.94 2.94 0 0 1 0 1.65c-.18.9-.55 1.89-.64 2.48a.16.16 0 0 1-.11.13l.14.18c1 1.34 1.75 2.93 2.5 4.12 1.62 2.55 4 4.88 5 7.76a13.87 13.87 0 0 1 .63 4.28 17.46 17.46 0 0 0 .44 4.21c1 3.58 4.25 6.2 7.54 7.92a25.77 25.77 0 0 1-3.3-11.47c-.07-1.3-.3-3.2.19-4.45a.16.16 0 0 1 .21-.1.17.17 0 0 1 .1.22c-.48 1.21-.24 3.05-.17 4.31a25.54 25.54 0 0 0 3.51 11.76h.18a2 2 0 0 1 .48-.59c.51-.44 1.18-.61 1.59-.15a5.16 5.16 0 0 1 .92 2.47c.31 1.59.39 3.21.85 4.77a15.08 15.08 0 0 0 1.73 3.51 13.07 13.07 0 0 1 1.69 3.63 8.64 8.64 0 0 1-.64 6 1.92 1.92 0 0 1-1.89 1 1.72 1.72 0 0 1-1.44-1.5c-.7-.33-1.38-.71-2.05-1.1a27.48 27.48 0 0 1-5.52-4 13.66 13.66 0 0 0 7.17 9.54.16.16 0 0 1 .14.09c.27.13.53.26.8.37 4 1.75 8.74 1.45 12.2-2.27a11.84 11.84 0 0 0 2.85-6.52 34.65 34.65 0 0 0-.7-11.08 65.33 65.33 0 0 0-2.54-9.39.16.16 0 0 1-.13-.19v-.14c-3.35-9.36-8.9-18.12-16.61-24.2a24.31 24.31 0 0 0-10.4-4.71c-.94-.28-4.39-.72-4.55-.72Zm-37.09 55.79a.62.62 0 0 1 .14.28c.06.22.08.46.11.62a11.11 11.11 0 0 1 .2 3.2.16.16 0 0 0 .14.18.18.18 0 0 0 .19-.15 11.74 11.74 0 0 0-.2-3.29c0-.17-.06-.42-.12-.64a1 1 0 0 0-.22-.43.16.16 0 0 0-.23 0 .17.17 0 0 0 .02.13Zm-38.92 3.08h17.89a8.73 8.73 0 0 1-.2-1h-23Zm21.67-1.55a1.42 1.42 0 0 0 .51.29c.26.1.55.17.78.25a.18.18 0 0 0 .22-.1.18.18 0 0 0-.11-.22l-.65-.19a1.65 1.65 0 0 1-.53-.27.16.16 0 0 0-.23 0 .17.17 0 0 0 .04.14Zm-4.35-3.72H96.28l-7-1.28v3.91l6.94 1.29h18.8c-.11-1.33-.12-2.76-.27-4.02Zm126.62-21.8c-4.88 5.59-10.33 10.72-14.78 16.68a56.65 56.65 0 0 0-4.26 6.49c-.06.1-.75 1.6-.93 1.9a.11.11 0 0 0 0 .09.17.17 0 0 0 .13.2h.09a.31.31 0 0 0 .12-.12c.18-.3.88-1.81.94-1.91a54.72 54.72 0 0 1 4.24-6.45c4-5.38 8.86-10.09 13.36-15.07a35.33 35.33 0 0 1-4.43 5.13.18.18 0 0 0 0 .24.16.16 0 0 0 .24 0 33.76 33.76 0 0 0 5.62-7c1.08-1.22 2.12-2.48 3.12-3.76a23.71 23.71 0 0 0 3.24-5.09 6.67 6.67 0 0 0 .47-1.38 1.34 1.34 0 0 0-.17-1 .54.54 0 0 0-.74-.1 5.2 5.2 0 0 0-1.23 1.22 22.19 22.19 0 0 0-2.73 5.33 30.33 30.33 0 0 1-2.27 4.5Zm-120.8 21.62a1 1 0 0 1-.15.23 1.13 1.13 0 0 0-.19.36 5.07 5.07 0 0 0 .29 3.05.17.17 0 0 0 .22.08.16.16 0 0 0 .08-.22 4.7 4.7 0 0 1-.27-2.82 1.2 1.2 0 0 1 .18-.31 1.05 1.05 0 0 0 .15-.24.17.17 0 0 0-.31-.13Zm100.91 3.42Zm0 0Zm0 0Zm0 0Zm0 0Zm-114.85-1.36a11.38 11.38 0 0 1-2.48.2l-5.52.41a.17.17 0 0 0-.15.18.15.15 0 0 0 .17.15l5.52-.41a12.83 12.83 0 0 0 2.56-.21.18.18 0 0 0 .11-.21.17.17 0 0 0-.16-.21Zm5.09-.31a8.36 8.36 0 0 0-1.83.77.16.16 0 0 0-.07.22.16.16 0 0 0 .22.07 7.56 7.56 0 0 1 1.74-.73.17.17 0 0 0 .13-.2.16.16 0 0 0-.14-.23Zm-20-.38a.17.17 0 0 0-.15 0 .17.17 0 0 0-.13.2.17.17 0 0 0 .1.13 1.3 1.3 0 0 0 .27.08c.28.08.57.14.86.21 1.21.27 2.41.52 3.63.7a.17.17 0 0 0 .19-.14.16.16 0 0 0-.14-.18c-1.22-.19-2.41-.44-3.61-.71-.28-.06-.56-.12-.85-.2Zm129-42c-2.34 7-5.34 13.78-7.18 21a61.66 61.66 0 0 0-1.5 7.61c0 .12-1.35 11.72-1.65 14 0 .2-.05.35-.06.38a.27.27 0 0 0 0 .09.16.16 0 0 0 .2.12.16.16 0 0 0 .13-.12s0-.18.06-.42c.3-2.33 1.64-13.93 1.66-14a58.71 58.71 0 0 1 1.48-7.56c1.66-6.44 4.23-12.55 6.43-18.78a37.4 37.4 0 0 1-2.06 6.25.16.16 0 0 0 .09.22.18.18 0 0 0 .22-.09 35.71 35.71 0 0 0 2.51-8.57q.78-2.33 1.43-4.66a25 25 0 0 0 1.08-5.93 6.9 6.9 0 0 0-.06-1.46 1.32 1.32 0 0 0-.5-.88c-.24-.16-.48-.08-.69.18a5.15 5.15 0 0 0-.65 1.58 23 23 0 0 0-.57 6 33.7 33.7 0 0 1-.33 4.9ZM111.16 188.6a5.69 5.69 0 0 1-.65.21l-.8.19-1.2.3a.17.17 0 0 0-.12.2.18.18 0 0 0 .21.12l1.19-.29.8-.2a4.87 4.87 0 0 0 1-.35c.15-.09.18-.21.16-.28a.26.26 0 0 0-.12-.14.93.93 0 0 0-.38-.09h-.76c-1.28 0-2.56.12-3.84.19a64.41 64.41 0 0 1-11.7-.28c-1-.13-2.07-.36-3.11-.54-.08 0-.38 0-.61-.06a.81.81 0 0 1-.2-.06.19.19 0 0 0-.21-.06.18.18 0 0 0-.09.22.31.31 0 0 0 .09.11.55.55 0 0 0 .23.09 5.84 5.84 0 0 0 .73.09c1 .18 2.08.41 3.13.54a65.07 65.07 0 0 0 11.76.28c1.28-.06 2.55-.16 3.83-.18h.68Zm78-19.26c-3.52-1.76-7.1-4.53-8.16-8.36a18.19 18.19 0 0 1-.46-4.29 13.23 13.23 0 0 0-.61-4.18c-1-2.85-3.37-5.16-5-7.69-.75-1.18-1.52-2.77-2.49-4.1a6.78 6.78 0 0 0-2.18-2.07.69.69 0 0 0-.64-.1.65.65 0 0 0-.28.42 2.37 2.37 0 0 0 0 1.06 18.7 18.7 0 0 0 2.27 5.21c.26.47.51.95.79 1.41l.14.21a7.08 7.08 0 0 1 .89.49 13.56 13.56 0 0 1 2.83 2.83.16.16 0 0 1-.26.2 13.08 13.08 0 0 0-2.76-2.75 5.41 5.41 0 0 0-.61-.36.23.23 0 0 1-.21-.06.45.45 0 0 1-.09-.1c-.51-.23-1-.41-1.58-.59a22.29 22.29 0 0 0-3.42-.88.15.15 0 0 1-.09 0 .13.13 0 0 1-.09 0l-.68-.08a5.23 5.23 0 0 0-3.24.43 1.3 1.3 0 0 0-.67 1.12 1.17 1.17 0 0 0 .4.81 3.16 3.16 0 0 0 1.45.69c.3.07.6.12.9.16a.21.21 0 0 1 .11 0l.65.11a12.93 12.93 0 0 1 3.7 1.39 14.52 14.52 0 0 1 1.36.83l.39.07a.15.15 0 0 1 .14.19.12.12 0 0 1 0 .08c.44.32.87.65 1.29 1s.58.44.86.67l.15.15.09.07a.16.16 0 0 1 .13.18.16.16 0 0 1-.18.15.48.48 0 0 1-.18-.08l-.22-.21-.85-.67c-.56-.43-1.12-.86-1.7-1.26-1.29-.2-2.59-.41-3.88-.64-.61-.12-1.28-.25-2-.34a.09.09 0 0 1-.07 0 .12.12 0 0 1-.09 0 6 6 0 0 0-2.7.21 1.91 1.91 0 0 0-.89.63.83.83 0 0 0 .16 1.21 3.14 3.14 0 0 0 1.27.62c.49.15 1 .24 1.46.36l.2.06v-.05a.14.14 0 0 1 .14 0 .2.2 0 0 1 .11.06.29.29 0 0 1 0 .11 35.76 35.76 0 0 1 4.07 1.54c1 .44 2 .92 3 1.36l.65.27.11.05a.18.18 0 0 1 .13 0 .16.16 0 0 1 0 .23.18.18 0 0 1-.17.06 1.38 1.38 0 0 1-.2-.08h-.09a.14.14 0 0 1-.07.1 6.56 6.56 0 0 1-3.69.59c-1-.07-2-.21-3-.18a.17.17 0 0 1-.09.17.17.17 0 0 1-.23-.08v-.08h-.49a.12.12 0 0 1 0 .08.16.16 0 0 1-.24 0 4.83 4.83 0 0 0-1.41.41 1.73 1.73 0 0 0-.84.78.68.68 0 0 0 .27.87 3.09 3.09 0 0 0 1.07.49c1.23.31 2.53.11 3.75.46a5.8 5.8 0 0 1 2.95 2.21c1.15 1.48 1.85 3.25 3.09 4.66 1.66 1.9 3.73 3.36 5.23 5.42 2.19 3 3.75 6.46 6.32 9.22a25.82 25.82 0 0 0 6.14 4.7 24.59 24.59 0 0 0 2.27 1.2 7.27 7.27 0 0 0 .76.33.39.39 0 0 0 .16 0 .47.47 0 0 1 .17 0 .21.21 0 0 1 .13.13.16.16 0 0 1 0 .14.15.15 0 0 1-.19.12.2.2 0 0 1-.12-.08h-.27c-.22-.08-.43-.18-.64-.28a1.34 1.34 0 0 0 1.09 1 1.58 1.58 0 0 0 1.56-.84 8.18 8.18 0 0 0 .6-5.71 12.69 12.69 0 0 0-1.64-3.54 15.19 15.19 0 0 1-1.77-3.59c-.46-1.56-.55-3.2-.86-4.79a4.86 4.86 0 0 0-.84-2.32.51.51 0 0 0-.49-.15 1.33 1.33 0 0 0-.63.33 1.8 1.8 0 0 0-.4.48l.6.28a.17.17 0 0 1 .09.22.17.17 0 0 1-.22.08l-.6-.26a.46.46 0 0 0 0 .31.18.18 0 0 1-.07.23.16.16 0 0 1-.22-.07.77.77 0 0 1-.07-.5.15.15 0 0 1-.18-.08Zm-74.66 16.94H91l5.35 1h18.38a6.78 6.78 0 0 0-.16-.83Zm2.8-20.28-1.07 1.53a27.12 27.12 0 0 1-2.85 3.63 4.69 4.69 0 0 1-2 1.35 1.31 1.31 0 0 1-1-.07 4.08 4.08 0 0 1-2.21 1.35 1.2 1.2 0 0 1-1.1-.18 63 63 0 0 0-5.65 4 18.56 18.56 0 0 0-1.57 1.13 3.25 3.25 0 0 0-1.1 1.46 12 12 0 0 0-.28 4.22 15 15 0 0 1 .14 1.53H99c0-.82.05-1.64 0-2.46a3.94 3.94 0 0 1 .15-1.9 1.77 1.77 0 0 1 .56-.6 10.93 10.93 0 0 1 1-.59c1-.55 1.9-1.15 2.82-1.78 3.73-2.54 7.36-5.26 11.21-7.63 1-.64 2.09-1.26 3.16-1.84.25-.13.61-.27.92-.43a1.43 1.43 0 0 0 .45-.31.28.28 0 0 0 0-.12 3.8 3.8 0 0 0-.33-.41 15.77 15.77 0 0 0-1.17-1.4c-.08-.09-.18-.24-.28-.35s-.08-.09-.12-.1Zm.25 4.51c-.09.31-.24.64-.32.85a15 15 0 0 1-2.1 3.82c-3.68 4.67-9.53 6.6-15.32 6.15a1.2 1.2 0 0 0-.32.39 3.57 3.57 0 0 0-.12 1.72v2.48h15.03a2 2 0 0 0-1.89-1.54l-4.66.07a.17.17 0 0 1-.17-.17.17.17 0 0 1 .19-.14h.07a.68.68 0 0 0 .22 0l.36-.12a15.58 15.58 0 0 0 1.79-.58 16.89 16.89 0 0 0 6.87-5 14.61 14.61 0 0 0 1.49-2c.07-.12.16-.24.25-.37a.77.77 0 0 0 .14-.34 1.71 1.71 0 0 0-.16-.76c-.16-.44-.42-.89-.54-1.24-.36-1.09-.56-2.15-.81-3.18Zm-17.31 14.14a.5.5 0 0 1 .12.23c0 .11.06.23.1.33a.16.16 0 0 0 .21.1.17.17 0 0 0 .1-.21c0-.12-.07-.27-.12-.4a.92.92 0 0 0-.17-.29.17.17 0 0 0-.24.24Zm.37-.9a1 1 0 0 1 .38.38c.18.27.32.61.45.84a.16.16 0 0 0 .22.07.17.17 0 0 0 .07-.23c-.13-.24-.28-.58-.47-.87a1.38 1.38 0 0 0-.5-.49.16.16 0 0 0-.22.07.17.17 0 0 0 .07.27Zm16.44-9.23a7.53 7.53 0 0 1-1.78 2.55 14.47 14.47 0 0 1-7.26 4.16c-1.56.38-3.17.5-4.73.83a5 5 0 0 0-1.13.33 1 1 0 0 0-.57.6 1.12 1.12 0 0 0 .16.85 1.78 1.78 0 0 1 .27.66.17.17 0 0 0 .17.16.18.18 0 0 0 .16-.18 2.08 2.08 0 0 0-.3-.79.84.84 0 0 1-.14-.61.7.7 0 0 1 .4-.39 4.13 4.13 0 0 1 1-.3c1.57-.34 3.18-.46 4.74-.84a14.69 14.69 0 0 0 7.42-4.26 8 8 0 0 0 1.86-2.66.16.16 0 0 0-.11-.21.16.16 0 0 0-.16.14Zm3-1.44c-.34.36-.71.75-1.11 1.19a4.32 4.32 0 0 1 .19.45 2 2 0 0 1 .18.92 1 1 0 0 1-.14.39c-.09.16-.21.31-.3.45a13.79 13.79 0 0 1-1.51 2.06 18.58 18.58 0 0 1-4.49 3.89c2.52-.55 5.65-1.08 8.82-1.48a28.26 28.26 0 0 0-.63-5.26 7.09 7.09 0 0 0-.96-2.57Zm-3.94 4.47v.07l-.17.18a7.78 7.78 0 0 1-1 1 16.59 16.59 0 0 1-5.19 3.13.16.16 0 0 0-.1.21.17.17 0 0 0 .22.1 16.92 16.92 0 0 0 5.29-3.19 9.1 9.1 0 0 0 1.07-1.08 2.25 2.25 0 0 0 .22-.26.43.43 0 0 0 .07-.21.17.17 0 0 0-.18-.15.16.16 0 0 0-.18.24Zm1.11-7.7c-.79.45-1.58.92-2.34 1.39-3.85 2.37-7.48 5.08-11.21 7.63-.92.63-1.86 1.23-2.83 1.79l-.68.37c5.56.32 11.13-1.57 14.66-6a14.8 14.8 0 0 0 2-3.74 7.76 7.76 0 0 0 .32-.85.84.84 0 0 0 0-.49ZM142 180.07a.15.15 0 0 0-.1.12.16.16 0 0 0 .26.17c.1-.06.61-.46.67-.52a7.77 7.77 0 0 0 1-1.43 11.72 11.72 0 0 0 1.66-4.88.17.17 0 1 0-.34 0 11.12 11.12 0 0 1-1.62 4.74 7.76 7.76 0 0 1-.91 1.37c-.14.03-.62.36-.62.43Zm.22.1a.14.14 0 0 1 0 .09.14.14 0 0 0-.05-.09Zm-.07-.09s-.03.01-.05 0Zm107.83-13.23a.16.16 0 0 0 .21-.08.16.16 0 0 0-.08-.22.26.26 0 0 0-.2 0 1 1 0 0 0-.29.09c-.34.17-.79.53-.9.59-1.17.73-2.34 1.44-3.54 2.13-4.88 2.8-10.18 5.61-13.88 9.57a.17.17 0 0 0 0 .24.16.16 0 0 0 .23 0c3.69-3.94 8.95-6.73 13.81-9.51 1.2-.69 2.38-1.41 3.55-2.13a9.78 9.78 0 0 1 .87-.58l.17-.06Zm-12.47 10a.17.17 0 0 0 .19-.08.18.18 0 0 0-.07-.23.18.18 0 0 0-.13 0 .52.52 0 0 0-.21.06 6.16 6.16 0 0 0-.54.36 20.14 20.14 0 0 0-1.89 1.54.17.17 0 0 0 0 .24.18.18 0 0 0 .24 0 18.28 18.28 0 0 1 1.86-1.51 4.56 4.56 0 0 1 .42-.3Zm-91 1.63a7.07 7.07 0 0 1 0-1.38c0-1-.14-1.92-.24-2.88a.16.16 0 0 0-.27-.22.16.16 0 0 0-.15.19c.09.94.19 1.9.23 2.85a7 7 0 0 0 0 1.45.16.16 0 0 0 .32-.08Zm-65.85-4 .06.05a.33.33 0 0 0 .14.1c.22.08.45.14.68.21a.16.16 0 0 0 .2-.11.16.16 0 0 0-.11-.21c-.22-.06-.44-.12-.65-.2l-.07-.07-.12-.09a.19.19 0 0 0-.16 0 .25.25 0 0 0-.12.07.17.17 0 0 0 0 .23.17.17 0 0 0 .06-.01Zm.11-.06Zm38.15-.41a37.44 37.44 0 0 0 3.63-4.2c2.49-3.51 3.65-8.2 2.05-12.35-1.54-4-6.18-6.24-10.31-6.2a24.05 24.05 0 0 0-5.68 1.08c-1.25.33-2.47.85-3.72 1.17a23.33 23.33 0 0 1-3.66.31 4.85 4.85 0 0 0-.82.61c-1.45 1.33-2.5 3.06-3.9 4.45-1.88 1.85-4.08 3.34-6 5.16a11.38 11.38 0 0 0-1.83 2.09 4.08 4.08 0 0 0-.47 1 4.41 4.41 0 0 0 1.92 1.27 14.42 14.42 0 0 0 4.25.22c3.88-.27 7.91-.88 11.38-2.73a15 15 0 0 0 2.76-1.93 7.45 7.45 0 0 0 1-1c.1-1.29 0-2.6 0-3.9a10.67 10.67 0 0 1 .12-1.69 2.48 2.48 0 0 1 .09-.31v-.15a.18.18 0 0 1 .06-.17.17.17 0 0 1 .24 0 .25.25 0 0 1 0 .19c0 .14-.12.41-.13.47a11.2 11.2 0 0 0-.11 1.64c0 1.36.14 2.75 0 4.11 0 .5-.17 1-.2 1.51a2.52 2.52 0 0 0 .12 1.09c.27-.54.53-1.08.79-1.62.63-1.28 1.24-2.56 1.88-3.84L113 159l.23-.43.1-.13a.16.16 0 0 1 .08-.1.16.16 0 0 1 .22 0 .14.14 0 0 1 0 .16.13.13 0 0 1 0 .07 1.47 1.47 0 0 0-.1.13c-.08.13-.15.28-.22.42-.23.43-.45.86-.67 1.3-.64 1.27-1.25 2.55-1.88 3.84-.79 1.63-1.6 3.25-2.4 4.88a13.18 13.18 0 0 0-1.34 3.17 1.14 1.14 0 0 0 .16.94.81.81 0 0 0 .87.18 3.7 3.7 0 0 0 2-1.23 1.34 1.34 0 0 1-.3-1.05 6.77 6.77 0 0 1 1.28-2.84c1.09-1.69 2.34-3.25 3.39-5a22.72 22.72 0 0 0 1.19-2.1c0-.08.16-.27.24-.45a.42.42 0 0 0 .06-.14.16.16 0 0 1 .12-.19.17.17 0 0 1 .21.12.6.6 0 0 1-.05.3c-.08.2-.25.45-.29.55-.36.74-.78 1.43-1.21 2.13-1 1.71-2.3 3.28-3.38 5a6.25 6.25 0 0 0-1.24 2.69.83.83 0 0 0 1.13 1 4.32 4.32 0 0 0 1.89-1.26 26.53 26.53 0 0 0 2.82-3.59c1-1.49 2.09-3 3.1-4.49a.17.17 0 0 1 .28.18c-.61.91-1.22 1.8-1.84 2.69l.12.09a3.2 3.2 0 0 1 .36.41l.51.58a15.39 15.39 0 0 0 1.68-4.31.16.16 0 0 1 .19-.13.16.16 0 0 1 .13.19 15.59 15.59 0 0 1-1.77 4.52l.45.58a3.6 3.6 0 0 1 .4.54.36.36 0 0 1 0 .38 1.89 1.89 0 0 1-.58.42c-.31.16-.67.29-.91.42l-.45.25a.15.15 0 0 1 .09.1c.33 1.23.53 2.52.94 3.73q.12.22.22.48Zm-38.12-8.34a.18.18 0 0 0 0-.18.14.14 0 0 0-.12 0 .14.14 0 0 0-.12.07s0 0 0 .08-.15.74-.15.8a10.18 10.18 0 0 0 0 1.83 11.42 11.42 0 0 0 1.72 5.3.16.16 0 0 0 .23 0 .17.17 0 0 0 0-.23 11 11 0 0 1-1.66-5.14 9.41 9.41 0 0 1 0-1.76c0-.06.12-.65.14-.76Zm-.88 6a.16.16 0 0 0-.32-.06.42.42 0 0 0 0 .27 3 3 0 0 0 .29.38 9.53 9.53 0 0 0 1.24 1.3.16.16 0 0 0 .23 0 .15.15 0 0 0 0-.23 11 11 0 0 1-1.25-1.33c0-.05-.15-.18-.22-.3Zm68.32-5.07a6.88 6.88 0 0 1 .77 1.05c.63 1 1.21 2.23 2 3.29a5.7 5.7 0 0 0 2.8 2.33 3.5 3.5 0 0 0 4-1.33 5.08 5.08 0 0 0 1-4.32 4.54 4.54 0 0 0-1-1.94 5.18 5.18 0 0 0-1.18-.95c-2-1.18-4-.57-5.94.48-1 .38-1.77.87-2.54 1.35Zm87.83-4a1.92 1.92 0 0 1-.23.87c-.25.51-.61 1-.79 1.37-1 1.91-2.15 3.72-3.14 5.63a.16.16 0 0 0 .07.22.17.17 0 0 0 .23-.07c1-1.91 2.16-3.72 3.14-5.63.17-.34.54-.86.79-1.38a2.07 2.07 0 0 0 .26-1 .17.17 0 0 0-.18-.15.17.17 0 0 0-.22.11Zm-148 5a1.15 1.15 0 0 0 0 .19 1.71 1.71 0 0 0 .3 1.08 1.85 1.85 0 0 0 1.33.69A4 4 0 0 0 92 169a10.77 10.77 0 0 1-2-.27 5 5 0 0 1-2-1.17Zm139.33-20.91a.17.17 0 0 0 0-.33.41.41 0 0 0-.17 0 1 1 0 0 0-.23.28 11.59 11.59 0 0 0-.52 1.08c-.69 1.37-1.38 2.72-2.12 4.06-3 5.45-6.28 11.12-7.8 17.19a.19.19 0 0 0 .12.21.19.19 0 0 0 .21-.13c1.5-6 4.81-11.69 7.77-17.11.73-1.34 1.42-2.7 2.11-4.07a9.23 9.23 0 0 1 .51-1c.03-.08.11-.16.12-.18Zm9.73 19.9a.18.18 0 0 0 .18-.14.17.17 0 0 0-.14-.19.38.38 0 0 0-.22 0 1.69 1.69 0 0 0-.41.38c-.47.54-1.06 1.49-1.2 1.67a.16.16 0 0 0 0 .23.17.17 0 0 0 .24 0c.14-.17.73-1.13 1.19-1.66a2.12 2.12 0 0 1 .25-.26Zm-89.51-.08-.12-.09a1.53 1.53 0 0 0-1.54-.27 2.79 2.79 0 0 0-1.59 2l.21-.07a14.33 14.33 0 0 0 3.04-1.57Zm73.38-2.92a.19.19 0 0 0 .12-.15.18.18 0 0 0-.16-.18.29.29 0 0 0-.23.13 3.88 3.88 0 0 0-.37.74 26.91 26.91 0 0 0-1 2.59.17.17 0 0 0 .32.11 23.87 23.87 0 0 1 1-2.56c0-.05.11-.28.21-.47a2.13 2.13 0 0 1 .11-.21Zm-140.43 2.17a.19.19 0 0 1-.12 0 .17.17 0 0 0 .12 0Zm0 0Zm.11-.06a.14.14 0 0 1-.1.05.15.15 0 0 0 .1-.05Zm0 0Zm161.77-1.14c.71-.83 1.39-1.67 2.06-2.53a23.12 23.12 0 0 0 3.19-5 5.74 5.74 0 0 0 .45-1.3 1 1 0 0 0-.11-.77c0-.07-.13-.07-.22 0a1.17 1.17 0 0 0-.28.16 5.72 5.72 0 0 0-.93 1 21.72 21.72 0 0 0-2.69 5.25 31.12 31.12 0 0 1-1.47 3.18Zm-28.57-15.26a2.52 2.52 0 0 1 .16 1.06c0 .66-.09 1.4-.1 1.85-.05 2.52-.3 5-.36 7.55a.17.17 0 0 0 .16.17.17.17 0 0 0 .18-.16c.05-2.52.31-5 .35-7.56 0-.45.11-1.19.11-1.85a2.86 2.86 0 0 0-.2-1.21.17.17 0 1 0-.3.15Zm-100.32 9.4Zm0 0Zm0 0Zm51.91-4.48s-.05.17-.05.18a5.45 5.45 0 0 0-.15.9 4.6 4.6 0 0 0 .14 2c1 0 2.07.11 3.12.17a6.23 6.23 0 0 0 3.4-.49l-.22-.1c-1-.44-2-.91-3-1.36s-2.11-.95-3.21-1.32Zm-.82-.27a.5.5 0 0 1 0 .13c-.07.27-.13.54-.18.82a7.42 7.42 0 0 0-.18 1.39 1.78 1.78 0 0 0 .27 1h.53a5.41 5.41 0 0 1-.12-2 5.35 5.35 0 0 1 .16-1 1.54 1.54 0 0 1 .06-.21Zm7.84 2.95Zm0 0Zm44-3.94a.18.18 0 0 0 .08-.21.17.17 0 0 0-.22-.1.35.35 0 0 0-.12.1 1 1 0 0 0-.16.34c-.21.72-.34 2.39-.4 2.69a.17.17 0 0 0 .13.2.17.17 0 0 0 .19-.13c0-.26.16-1.57.33-2.37a2.4 2.4 0 0 1 .13-.46Zm-11.6-1a1.69 1.69 0 0 0-.37.82c-.11.46-.15 1-.22 1.3a.16.16 0 1 0 .32.08c.07-.3.12-.84.23-1.31a1.4 1.4 0 0 1 .27-.65.16.16 0 0 0 0-.23.17.17 0 0 0-.2-.03Zm-39.64 2.3a.12.12 0 0 0 .1 0 .18.18 0 0 1-.07-.02Zm-6-7.75a30.08 30.08 0 0 1-5.84 3.55c-3.83 1.74-8.55 2-11.13-1.86l-.06-.09a1.34 1.34 0 0 1 0 .17 1.35 1.35 0 0 0 .21.75 7.36 7.36 0 0 0 1.45 1.92c1.61 1.54 4.18 2.25 6.32 2.58 2.68.4 5.88.18 8.14-1.44 1.83-1.3 2.74-3.93.98-5.6Zm44.62 3.39a.16.16 0 0 0 0-.15.17.17 0 0 0-.19-.13.15.15 0 0 0-.13.1.29.29 0 0 0 0 .1v.35c0 .29-.05.58-.07.88-.06.82-.13 1.64-.19 2.46a.17.17 0 0 0 .15.18.18.18 0 0 0 .18-.16c.07-.81.13-1.63.19-2.46 0-.29 0-.59.07-.88Zm-100 3.4h-.09a2 2 0 0 0-.84-.09 4.26 4.26 0 0 0-1.23.3c.9-.09 1.67-.16 2.22-.23Zm73.61-21.87v.07a2.63 2.63 0 0 1-.16.26 2 2 0 0 0-.25.48.33.33 0 0 0 .13.37 3.87 3.87 0 0 0 1.53.57c.84.16 1.77.19 2.43.28a18 18 0 0 1 5.37 1.61c5.55 2.66 8.61 7.44 12.21 12.15a1.69 1.69 0 0 0 1.25.73 2.18 2.18 0 0 1 1.08.28 2.88 2.88 0 0 1 .91 1.3 16.92 16.92 0 0 1 .69 2.54.16.16 0 0 0 .19.13.17.17 0 0 0 .13-.2 16.48 16.48 0 0 0-.7-2.6 3.17 3.17 0 0 0-1-1.44 1.91 1.91 0 0 0-1-.31A1.57 1.57 0 0 1 199 147c-3.63-4.76-6.73-9.57-12.33-12.25a18.62 18.62 0 0 0-5.46-1.64c-.66-.09-1.58-.11-2.41-.27a3.63 3.63 0 0 1-1.41-.52v-.08a3.74 3.74 0 0 1 .27-.42 1.31 1.31 0 0 0 .14-.31.43.43 0 0 0 0-.2.34.34 0 0 0-.16-.15.16.16 0 0 0-.15.29Zm-11.08 17.92v.14c-.05.27-.09.56-.12.84l.83.15c1 .19 2.09.36 3.14.53-.23-.15-.47-.29-.71-.42a13.11 13.11 0 0 0-3.08-1.26Zm-20.86-27a39.71 39.71 0 0 0-2.49 6.57c-1.58 5.32-3.31 11.16-1.61 16.68a9.25 9.25 0 0 0 1.13 2.4c2.48 3.76 7 3.42 10.71 1.75a31.55 31.55 0 0 0 15.44-15.9c-1.28-1.67-1.21-3.29-1.67-5.3a6.94 6.94 0 0 0-.54-1.71 2.3 2.3 0 0 0-1.18-1.18 5.16 5.16 0 0 0-3.63.21c-1.28.45-2.54 1.1-3.62 1.44a15.22 15.22 0 0 1-6.08.69 7.06 7.06 0 0 1-5.29-3 8.1 8.1 0 0 1-1.11-2.66Zm-67 6.36a10.86 10.86 0 1 0 10.85 10.86 10.86 10.86 0 0 0-10.77-10.87Zm86.79 20.42v.28c0 .25-.08.49-.11.74l.74.11a8.32 8.32 0 0 1 .13-.85s0-.08 0-.15h-.18ZM78.62 129a10.53 10.53 0 1 1-10.53 10.52A10.52 10.52 0 0 1 78.62 129Zm125 20.82Zm-125-19a8.67 8.67 0 1 0 8.67 8.67 8.67 8.67 0 0 0-8.67-8.6Zm63.45 17.22Zm0 0Zm0 0Zm-63.45-16.82a8.34 8.34 0 1 1-8.34 8.34 8.34 8.34 0 0 1 8.34-8.34Zm-11.81 16.27a.21.21 0 0 0-.11 0 .13.13 0 0 0-.08.08.1.1 0 0 0 0 .09.16.16 0 0 0 .14.15 3.71 3.71 0 0 0 .48.05 8.22 8.22 0 0 0 1-.13.17.17 0 0 0 .14-.19.18.18 0 0 0-.19-.14c-.32.05-.63.11-1 .13Zm.1.25a.19.19 0 0 1-.08.07.14.14 0 0 0 .08-.07Zm0 0Zm0 0Zm0 0Zm0 0Zm0 0Zm0 0Zm34.2-3.76a9 9 0 0 0-.88 2.76.16.16 0 0 0 .12.2.17.17 0 0 0 .2-.12 8.38 8.38 0 0 1 .84-2.65.17.17 0 0 0 0-.23.17.17 0 0 0-.26-.03ZM66 145.57a.2.2 0 0 0-.13-.16.17.17 0 0 0-.2.12.32.32 0 0 0 .1.29 1.69 1.69 0 0 0 .42.27 13.48 13.48 0 0 0 1.86.61.17.17 0 1 0 .1-.32 12.88 12.88 0 0 1-1.82-.59 1.38 1.38 0 0 1-.28-.17s-.05-.04-.05-.05Zm106.41-5.5c.11-.59.45-1.54.63-2.41a2.63 2.63 0 0 0 0-1.45.51.51 0 0 0-.16-.17 2.33 2.33 0 0 0-.57-.28 10.57 10.57 0 0 0-2.87-.5h-.05a20.37 20.37 0 0 1-.58 3.21 69.52 69.52 0 0 0-1.41 6.83 24.36 24.36 0 0 1 3.41.88c.4.14.8.27 1.18.42-.24-.4-.46-.82-.69-1.23a19.7 19.7 0 0 1-2.3-5.31 2.79 2.79 0 0 1 0-1.22.93.93 0 0 1 .45-.61 1 1 0 0 1 .95.09 6.7 6.7 0 0 1 1.96 1.75Zm-67.13 1.85a35.36 35.36 0 0 0-3.26 4.41.16.16 0 0 0 0 .23.17.17 0 0 0 .23 0 35.49 35.49 0 0 1 3.22-4.38.16.16 0 0 0 0-.23.17.17 0 0 0-.24-.03Zm-14.76.51.07-.07a.17.17 0 0 0-.06-.23.27.27 0 0 0-.17 0 .2.2 0 0 0-.15.15.85.85 0 0 0 0 .25v.16c-.12.29-.25.58-.39.85-.4.81-.93 1.56-1.36 2.36a.17.17 0 0 0 .3.16c.43-.8 1-1.55 1.36-2.37.14-.28.28-.58.4-.88a1 1 0 0 0 0-.21c-.06-.07-.05-.13-.05-.17Zm-15.22-15.7a.17.17 0 0 0-.11-.2.15.15 0 0 0-.13 0 .17.17 0 0 0-.09.12.39.39 0 0 0 0 .11v.33c0 .03.07.25.1.38a.84.84 0 0 1 0 .31.33.33 0 0 1-.1.15 1.13 1.13 0 0 1-.24.17 4.25 4.25 0 0 1-.87.36c-3.6 1.16-6.45 3.33-7.25 7.25-.31 1.52 0 3-.17 4.53a.27.27 0 0 1-.07.17.29.29 0 0 1-.17 0 1.32 1.32 0 0 1-.27 0 2.48 2.48 0 0 0-.54 0 .65.65 0 0 0-.53.26 1.07 1.07 0 0 0-.14.68 3.33 3.33 0 0 0 .23.93 7.54 7.54 0 0 0 2.34 3 .17.17 0 1 0 .22-.25 7.3 7.3 0 0 1-2.25-2.88 3.2 3.2 0 0 1-.21-.85.67.67 0 0 1 .09-.45.36.36 0 0 1 .36-.13h.61a.69.69 0 0 0 .5-.13.61.61 0 0 0 .16-.38c.18-1.5-.15-3 .17-4.49.77-3.79 3.54-5.88 7-7a4.6 4.6 0 0 0 1.09-.5.81.81 0 0 0 .33-.42.77.77 0 0 0 0-.37c0-.17-.08-.33-.11-.47s.01-.17 0-.23Zm93.7 8.56a.89.89 0 0 0-.57.32 5.54 5.54 0 0 0-.67 1.82 41.2 41.2 0 0 0-1.1 4.8c-.13.67-.22 1.35-.32 2l-.09.67a1.49 1.49 0 0 0 0 .21h.19l.61.07a69.87 69.87 0 0 1 1.4-6.85 19.7 19.7 0 0 0 .55-3.04Zm52.26 9.8c.31-1 .61-2 .89-3a24.82 24.82 0 0 0 1.07-5.85 6.17 6.17 0 0 0-.06-1.38 1 1 0 0 0-.35-.67.13.13 0 0 0-.18 0 1 1 0 0 0-.19.26 5.62 5.62 0 0 0-.47 1.28 22.74 22.74 0 0 0-.55 5.88c.02 1.22-.04 2.39-.14 3.48Zm-55.18 0a.06.06 0 0 0-.06 0 .06.06 0 0 1 .08-.01Zm-32.66-12.14a24.66 24.66 0 0 1-3.26.84 75.55 75.55 0 0 0-7.1 2.62c-1.81.77-3.62 1.59-5.37 2.48a12.57 12.57 0 0 1-3.77 1.67.79.79 0 0 1-.31 0 .14.14 0 0 1-.11-.07.39.39 0 0 1 0-.25 2.86 2.86 0 0 1 .09-.46 2.79 2.79 0 0 0 .17-.82.5.5 0 0 0-.15-.37.58.58 0 0 0-.44-.14 2.82 2.82 0 0 0-1.19.41c-.57.33-1.14.78-1.56 1.06a60.43 60.43 0 0 0-6.23 4.81.17.17 0 1 0 .22.25 59.79 59.79 0 0 1 6.2-4.78c.41-.27 1-.73 1.53-1.05a2.4 2.4 0 0 1 1.05-.36.22.22 0 0 1 .19 0 .16.16 0 0 1 0 .07.54.54 0 0 1 0 .18 4.59 4.59 0 0 1-.15.62 2.32 2.32 0 0 0-.11.6.65.65 0 0 0 .1.38c.1.16.32.27.73.21a13.14 13.14 0 0 0 3.88-1.7c1.75-.89 3.55-1.71 5.35-2.48 2.31-1 4.68-1.85 7.08-2.61a21.26 21.26 0 0 0 3.3-.86.15.15 0 0 0 .07-.22.16.16 0 0 0-.19-.04ZM91.08 144a.17.17 0 0 0 .13-.13.19.19 0 0 0-.14-.2.3.3 0 0 0-.12 0 .64.64 0 0 0-.15.12 9.59 9.59 0 0 0-.61.91.17.17 0 0 0 .27.19c.05-.07.27-.45.46-.71a1.37 1.37 0 0 1 .16-.18Zm-12.46-6.53-1.84-1.84a1.46 1.46 0 0 0-1-.43 1.5 1.5 0 0 0-1 .43 1.45 1.45 0 0 0 0 2.06l1.83 1.84-1.91 1.87a1.45 1.45 0 0 0 0 2.06 1.5 1.5 0 0 0 1 .43 1.46 1.46 0 0 0 1-.43l1.84-1.84 1.83 1.84a1.5 1.5 0 0 0 1 .43 1.48 1.48 0 0 0 1-.43 1.45 1.45 0 0 0 0-2.06l-1.83-1.84 1.83-1.84a1.45 1.45 0 0 0 0-2.06 1.48 1.48 0 0 0-1-.43 1.5 1.5 0 0 0-1 .43Zm-.12.35a.16.16 0 0 0 .24 0l2-2a1.14 1.14 0 0 1 .8-.33 1.11 1.11 0 0 1 .79.33 1.15 1.15 0 0 1 .33.8 1.14 1.14 0 0 1-.33.8l-2 1.95a.18.18 0 0 0 0 .24l2 1.95a1.13 1.13 0 0 1 0 1.6 1.11 1.11 0 0 1-.79.33 1.14 1.14 0 0 1-.8-.33l-2-2a.16.16 0 0 0-.24 0l-2 2a1.11 1.11 0 0 1-.79.33 1.14 1.14 0 0 1-.8-.33 1.13 1.13 0 0 1 0-1.6l2-1.95a.18.18 0 0 0 0-.24l-2-1.95a1.14 1.14 0 0 1-.33-.8 1.15 1.15 0 0 1 .33-.8 1.14 1.14 0 0 1 .8-.33 1.11 1.11 0 0 1 .79.33Zm88.79 4.45a.17.17 0 0 0 .06-.1.18.18 0 0 0-.15-.19.2.2 0 0 0-.18.08.85.85 0 0 0-.08.22c-.05.21-.1.42-.13.63a.16.16 0 0 0 .13.19.16.16 0 0 0 .19-.14c0-.2.08-.4.13-.59Zm-.12 0Zm.74-2.78a.16.16 0 0 0 .06-.2.17.17 0 0 0-.22-.09.37.37 0 0 0-.15.17c0 .1-.08.25-.1.31a11.7 11.7 0 0 0-.36 1.19.17.17 0 0 0 .13.2.15.15 0 0 0 .19-.12 11.89 11.89 0 0 1 .35-1.16s0-.14.07-.22.03-.02.03-.03Zm.8-4.72c0 .09-.08.18-.13.27a2 2 0 0 1 .42-.04Zm5.1-23.89a12 12 0 0 0 4 1.55.17.17 0 0 1 .13.2.17.17 0 0 1-.19.13 12 12 0 0 1-6.21-3.27c-1.62-1.63-3-3.69-4.62-5.47a10.93 10.93 0 0 0-5.77-3.78c-4.57-1-8.59 1.45-11.32 4.95a12.49 12.49 0 0 0-1.72 2.87c0 .1-.14.3-.22.5a31.81 31.81 0 0 0 3.94-2 .16.16 0 0 1 .23 0 .16.16 0 0 1-.05.23 34.05 34.05 0 0 1-4.17 2.13.17.17 0 0 1-.09.17.18.18 0 0 1-.2 0c-1.36.6-2.73 1.18-4 1.85-2.73 1.39-5.15 3.15-6.52 6.26-1.79 4.09-1 8.43 2.72 11.06a5.84 5.84 0 0 0 2.87 1.25c.07-.24.14-.49.22-.73a37.11 37.11 0 0 1 2.69-7 7.19 7.19 0 0 1-.11-2.31.17.17 0 0 1 .33 0 7.52 7.52 0 0 0 .2 2.63 8 8 0 0 0 1.05 2.67 6.78 6.78 0 0 0 5.06 2.8 15.08 15.08 0 0 0 6-.7c1.29-.42 2.86-1.28 4.4-1.69a4.77 4.77 0 0 1 3.08 0c1.26.52 1.65 1.9 1.92 3.11.44 2 .36 3.53 1.59 5.16a.15.15 0 0 1 .09.21c-.09.23-.19.46-.29.68a3.75 3.75 0 0 0 4.5-.93 9.38 9.38 0 0 0 1-1.73 8.47 8.47 0 0 1 1-1.8c1.48-1.83 3.7-2.84 5.57-4.2a11.16 11.16 0 0 0 4.59-7 10.84 10.84 0 0 0 .07-3c-.4-3.27-2.64-6.24-6.06-6.57a9.33 9.33 0 0 0-4.1.74 6.66 6.66 0 0 0-1.28.64 2.49 2.49 0 0 0-.24.23Zm-64.11 23.56a.7.7 0 0 1 .33-.09h.65a.17.17 0 1 0 0-.33h-.66a1 1 0 0 0-.46.13.16.16 0 0 0-.07.22.18.18 0 0 0 .21.07Zm-6.55-1.44H104.26c.79 0 1.57.05 2.36.09 2.29.09 4.59.13 6.88.3a.17.17 0 0 0 .18-.15.18.18 0 0 0-.16-.18c-2.29-.17-4.59-.21-6.89-.31-.79 0-1.57-.08-2.36-.09H103.16a.34.34 0 0 0-.19 0 .28.28 0 0 0-.09.1.26.26 0 0 0 0 .17.17.17 0 0 0 .23.07Zm0-.19Zm0 0Zm19-31.33a.18.18 0 0 0-.1-.16.17.17 0 0 0-.18 0L97.1 126.13a.16.16 0 0 0 0 .12v5.42a.17.17 0 0 0 .16.17H122a.17.17 0 0 0 .16-.17Zm18.48 29.92-.16-.05c-.19-.08-.41-.22-.47-.25a12.83 12.83 0 0 1-2.24-1.56 12.42 12.42 0 0 1-4.47-9.87 10.37 10.37 0 0 1 6.08-9.08 13.77 13.77 0 0 1 2.73-.87c.29-.06.63-.12 1-.21a2 2 0 0 0 .9-.52 1.33 1.33 0 0 0 .31-.9 5.15 5.15 0 0 0-.11-.9 12.1 12.1 0 0 1-.34-3.39 5.07 5.07 0 0 1 2.74-3.91 11.45 11.45 0 0 1 4.9-1.38.15.15 0 0 0 .15-.17.17.17 0 0 0-.17-.16 11.89 11.89 0 0 0-5.05 1.42 5.44 5.44 0 0 0-2.91 4.17 12.75 12.75 0 0 0 .35 3.48 3.77 3.77 0 0 1 .1.83 1 1 0 0 1-.22.69 1.65 1.65 0 0 1-.74.42c-.32.09-.65.14-.93.21a13 13 0 0 0-2.79.89 10.68 10.68 0 0 0-6.28 9.37 12.76 12.76 0 0 0 4.58 10.13 12.21 12.21 0 0 0 2.31 1.6 4.19 4.19 0 0 0 .59.31.56.56 0 0 0 .24 0 .19.19 0 0 0 .13-.05.16.16 0 0 0 0-.24.16.16 0 0 0-.19-.05Zm-18.81-29.52v29.62H97.39v-5.18Zm3.45 27.33a.18.18 0 0 0 .08-.14.17.17 0 0 0-.17-.17.22.22 0 0 0-.19.12 2.42 2.42 0 0 0-.16.48 16.22 16.22 0 0 0-.52 1.63.17.17 0 0 0 .13.2.16.16 0 0 0 .2-.12c.12-.55.33-1.08.5-1.61.06-.08.15-.37.17-.43Zm-2.15-.45a11.45 11.45 0 0 1 .11-2.67c0-1.72 0-3.44-.09-5.17 0-.7-.08-1.41-.12-2.11v-.55a.16.16 0 0 0 0-.23.17.17 0 0 0-.23 0 .51.51 0 0 0-.06.27 3.39 3.39 0 0 0 0 .52c0 .7.09 1.4.12 2.11.07 1.71.13 3.43.09 5.15a11.64 11.64 0 0 0-.1 2.76.46.46 0 0 0 .25.27 3.81 3.81 0 0 0 .45.19.56.56 0 0 1 .19.1.65.65 0 0 1 .19.48 4.4 4.4 0 0 1 0 .65.17.17 0 0 0 .34 0 4.08 4.08 0 0 0 0-.86.88.88 0 0 0-.29-.56 2.77 2.77 0 0 0-.62-.29.35.35 0 0 1-.12-.07Zm-33.58 1.35a.17.17 0 0 0 .23 0l36.72-36.72a.16.16 0 0 0 0-.24L125 91.59a.15.15 0 0 0-.23 0l-36.72 36.72a.17.17 0 0 0 0 .23Zm12.13-.15h6.43a.17.17 0 0 0 .17-.17.17.17 0 0 0-.17-.16h-6.43a.17.17 0 0 0-.17.16.17.17 0 0 0 .21.13Zm10.58-.08h6.43a.17.17 0 0 0 .16-.17.16.16 0 0 0-.16-.16h-6.43a.17.17 0 0 0-.17.16.18.18 0 0 0 .21.13Zm-22.59-.13-1.29-1.29 36.48-36.48 1.29 1.29Zm12-1h6.43a.17.17 0 0 0 .17-.17.17.17 0 0 0-.17-.16h-6.43a.17.17 0 0 0-.17.16.17.17 0 0 0 .22.09Zm10.58-.08h6.43a.16.16 0 0 0 .16-.17.16.16 0 0 0-.16-.16h-6.43a.17.17 0 0 0-.17.16.17.17 0 0 0 .22.09Zm-10.58-1.17h6.43a.17.17 0 0 0 .17-.16.17.17 0 0 0-.17-.17h-6.43a.17.17 0 0 0-.17.17.17.17 0 0 0 .22.08Zm10.58-.08h6.43a.16.16 0 0 0 .16-.17.16.16 0 0 0-.16-.16h-6.43a.17.17 0 0 0-.17.16.17.17 0 0 0 .22.09Zm-37.13-.5a.2.2 0 0 1-.11 0 .2.2 0 0 0 .16-.08Zm26.55-.67h6.43a.17.17 0 0 0 .17-.16.17.17 0 0 0-.17-.17h-6.43a.17.17 0 0 0-.17.17.17.17 0 0 0 .22.08Zm10.58-.08h6.43a.16.16 0 0 0 .16-.16.16.16 0 0 0-.16-.17h-6.43a.17.17 0 0 0-.17.17.17.17 0 0 0 .22.08Zm-7.24-1.42h-3.31a.17.17 0 0 0 0 .34H105a.17.17 0 0 0 0-.34Zm10.58-.08h-3.31a.17.17 0 0 0 0 .34h3.31a.17.17 0 0 0 0-.34Zm3.28-16.47a.17.17 0 0 0-.28-.12l-11.29 11.29a.18.18 0 0 0 0 .12V122a.17.17 0 0 0 .16.17h11.3a.17.17 0 0 0 .16-.17Zm-.33.4v13.19h-11v-2.23Zm-.21-13.6a.21.21 0 0 0 .05-.12v-3.17a.17.17 0 0 0-.17-.17H93.39a.16.16 0 0 0-.16.17v28a.18.18 0 0 0 .1.15.16.16 0 0 0 .18 0Zm-.28-.19-24.48 24.51V91.87H118Zm59.4-.53-.09.13a9.9 9.9 0 0 0-1.83 6.69 3 3 0 0 0 2.08 2.75 4 4 0 0 0 2.34-.21 12.17 12.17 0 0 0 3.05-1.83c.26-.19.52-.4.78-.61a7 7 0 0 0 1.74 1.39c1.94 1.18 4.16 1.93 5.88 3.47 1.52 1.37 2.44 3.18 3.75 4.72a3.23 3.23 0 0 0 .92.79 1.2 1.2 0 0 0 1.25 0 1.72 1.72 0 0 0 .72-1 5.49 5.49 0 0 0 .22-1.75 19.54 19.54 0 0 0-1.38-6.42 6.07 6.07 0 0 0 1.84-3c0-.18.09-.36.13-.54.37.25.72.53 1 .78a55.29 55.29 0 0 1 4.64 5c.81.88 1.87 2 3.13 2.18s2.09-1.1 2.17-2.23a5.55 5.55 0 0 0-2.18-4.35.16.16 0 0 0-.23 0 .17.17 0 0 0 0 .24 5.23 5.23 0 0 1 2.07 4.08c-.07 1-.73 2-1.8 1.92a3.1 3.1 0 0 1-1.59-.76 12.91 12.91 0 0 1-1.34-1.32 55.74 55.74 0 0 0-4.66-5 10.5 10.5 0 0 0-1.19-.88 4.51 4.51 0 0 0-1.2-3.83 4.4 4.4 0 0 0-4.67-.88 16.51 16.51 0 0 0-5.41 3.42l-.4.35c-.13-.4-.25-.81-.36-1.22 2.34-1.22 4.94-1.89 7.22-3.25a5.63 5.63 0 0 0 1.87-1.8 2.54 2.54 0 0 0 .17-2.56 1.92 1.92 0 0 0-1.88-1 7.84 7.84 0 0 0-3.17 1c-1.71.89-3.43 2.22-5.24 3.38a15.59 15.59 0 0 0-2.62-6.07c-1.61-2.09-4.71-3.82-7.29-2.38s-3.06 4.27-2.11 6.66a7.28 7.28 0 0 0 3.67 3.98Zm9.62 4c-1 .93-2 1.88-3 2.75l.13.14a7.42 7.42 0 0 0 1.53 1.17c2 1.2 4.2 2 5.93 3.51 1.54 1.38 2.47 3.2 3.78 4.76a3.24 3.24 0 0 0 .83.71.87.87 0 0 0 .92 0 1.38 1.38 0 0 0 .58-.79 5.46 5.46 0 0 0 .2-1.66 19.32 19.32 0 0 0-1.32-6.19 5.45 5.45 0 0 1-7.88-1.19 13.07 13.07 0 0 1-1.7-3.21ZM169.83 105a1.37 1.37 0 0 0 .28.53c.18.25.42.51.53.65a29.83 29.83 0 0 0 2.36 2.67.16.16 0 1 0 .23-.23 30.63 30.63 0 0 1-2.32-2.64c-.12-.15-.36-.4-.54-.65a1.13 1.13 0 0 1-.21-.38.17.17 0 0 0-.19-.14.18.18 0 0 0-.14.19Zm2.75 1.7a1 1 0 0 1 .23.28c.13.22.25.49.34.63a.16.16 0 0 0 .23 0 .17.17 0 0 0 .05-.23c-.09-.14-.21-.4-.34-.62a1.21 1.21 0 0 0-.33-.39.17.17 0 0 0-.23 0 .17.17 0 0 0 .05.3Zm-33.77-.28a.22.22 0 0 0-.16 0 .18.18 0 0 0-.09.13.17.17 0 0 0 0 .12.19.19 0 0 0 .08.07h.09a1.46 1.46 0 0 1 .21 0 2.73 2.73 0 0 1 .41.1c.49.14.95.34 1.43.5a.16.16 0 0 0 .21-.1.17.17 0 0 0-.1-.21c-.48-.17-.95-.36-1.44-.51a2.37 2.37 0 0 0-.46-.11 1.33 1.33 0 0 0-.18-.02Zm2.6-5.19a.18.18 0 0 0 .11-.15.17.17 0 0 0-.16-.17c-.11 0-.22.06-.27.24a5.22 5.22 0 0 0 0 1.31 13.81 13.81 0 0 0 1.26 4.49.16.16 0 0 0 .22.07.17.17 0 0 0 .08-.22 13.13 13.13 0 0 1-1.22-4.38 6.13 6.13 0 0 1 0-.72 2.42 2.42 0 0 1 0-.4.19.19 0 0 0-.02-.1Zm-2.58 5.48Zm-34.55-11a.17.17 0 0 0-.16-.17h-8.18a.17.17 0 0 0-.16.17v10.65a.17.17 0 0 0 .16.17h8.18a.17.17 0 0 0 .16-.17Zm-.33.16v10.33h-7.84V95.89Zm81.66-3.16a11.35 11.35 0 0 1-6 2.08 5.4 5.4 0 0 1-1.91-.36 1.4 1.4 0 0 1-.12.18 9.54 9.54 0 0 0-1.78 6.46 2.7 2.7 0 0 0 1.82 2.48 3.76 3.76 0 0 0 2.16-.21 11.8 11.8 0 0 0 3-1.77c.26-.2.52-.4.78-.62a2.24 2.24 0 0 1-.35-.77 2.05 2.05 0 0 1 .36-1.64 6.68 6.68 0 0 1 1.86-1.65c.33-.22.67-.41 1-.6-.22-.81-.4-1.64-.59-2.46-.06-.35-.14-.72-.23-1.1Zm13 5.72a4.18 4.18 0 0 0-1.12-3.4 4.1 4.1 0 0 0-4.34-.81 16.16 16.16 0 0 0-5.29 3.36l-.5.44a12.82 12.82 0 0 0 1.66 3.28 5.13 5.13 0 0 0 7.49 1.06c-.08-.22-.15-.43-.23-.64a9.62 9.62 0 0 1-.73-2.35 1.13 1.13 0 0 1 .79-1.34 2.66 2.66 0 0 1 1.67.13 5.28 5.28 0 0 1 .57.29Zm-.05.36a3.73 3.73 0 0 0-.67-.32 2.36 2.36 0 0 0-1.46-.12c-.48.13-.59.53-.55 1a9.07 9.07 0 0 0 .72 2.27l.18.51a5.74 5.74 0 0 0 1.64-2.7 5.56 5.56 0 0 0 .11-.62Zm-92.73 2.87h4.68a.17.17 0 0 0 .17-.17.16.16 0 0 0-.17-.16h-4.71a.17.17 0 0 0-.17.16.18.18 0 0 0 .17.19Zm80.75-5c-.32.17-.63.35-.93.55a6.26 6.26 0 0 0-1.76 1.56 1.71 1.71 0 0 0-.32 1.38 2.21 2.21 0 0 0 .28.63c1.05-.89 2.07-1.87 3.12-2.82-.17-.45-.3-.88-.42-1.32Zm-80.75 3.79h5.79a.16.16 0 0 0 .16-.17.16.16 0 0 0-.16-.16h-5.82a.17.17 0 0 0-.17.16.17.17 0 0 0 .17.15Zm-8.73-10.2a1.35 1.35 0 0 1-.46 0c-.34 0-.71-.1-1-.13a7 7 0 0 0-3.19.26c-1.08.44-1.31 1.34-1.39 2.42a41.12 41.12 0 0 0 0 4.3v1.36a2.38 2.38 0 0 0 .18.91.16.16 0 0 0 .22.08.17.17 0 0 0 .08-.22 2.14 2.14 0 0 1-.15-.79v-1.35a40.37 40.37 0 0 1 0-4.26c.07-1 .24-1.76 1.19-2.14a6.47 6.47 0 0 1 3-.23c.25 0 .63.1 1 .12a1.28 1.28 0 0 0 .7-.1.22.22 0 0 0 .12-.14.28.28 0 0 0 0-.18.43.43 0 0 0-.12-.2 2 2 0 0 0-.19-.17 8.84 8.84 0 0 1-1.02-.79l-.07-.16v-.06a.36.36 0 0 1 .19-.07 1.21 1.21 0 0 1 .38 0 7.58 7.58 0 0 1 1.17.24 47.87 47.87 0 0 1 5.46 1.7.17.17 0 0 0 .21-.1.17.17 0 0 0-.1-.22 47.89 47.89 0 0 0-5.5-1.7 6.6 6.6 0 0 0-1.45-.27.91.91 0 0 0-.61.2.31.31 0 0 0-.06.35.93.93 0 0 0 .21.28 9.4 9.4 0 0 0 1.09.89.6.6 0 0 1 .15.14s-.05.01-.04.03Zm8.7 8.93h7.43a.16.16 0 0 0 .17-.16.16.16 0 0 0-.17-.17h-7.43a.17.17 0 0 0-.17.17.17.17 0 0 0 .17.16ZM224.23 87.9c0-4.36-4.62-7.93-10.34-7.93s-10.34 3.57-10.34 7.93a7.35 7.35 0 0 0 3.68 6.1l-.48 4.29a.69.69 0 0 0 .35.7.71.71 0 0 0 .78 0l4.2-3.2a13.64 13.64 0 0 0 1.81.12c5.72-.08 10.34-3.65 10.34-8.01Zm-.33 0c0 4.21-4.5 7.6-10 7.6a13.83 13.83 0 0 1-1.83-.13.15.15 0 0 0-.13 0s-2.72 2.08-4.26 3.24a.38.38 0 0 1-.41 0 .39.39 0 0 1-.19-.37l.51-4.39a.18.18 0 0 0-.08-.16 7.06 7.06 0 0 1-3.62-5.85c0-4.21 4.49-7.59 10-7.59s10.01 3.44 10.01 7.65Zm-118.1 10h8.2a.17.17 0 0 0 .17-.16.17.17 0 0 0-.17-.17h-8.2a.17.17 0 0 0-.17.17.17.17 0 0 0 .17.19Zm99.87-.54v-.14c0-.14.09-.29.13-.44a7.8 7.8 0 0 0 .36-1 .91.91 0 0 0-.13-.78 12.93 12.93 0 0 0-1.61-1.33 8.72 8.72 0 0 1-2.42-3.42 7.44 7.44 0 0 1 1.67-7.88 5.75 5.75 0 0 1 1.52-1 6.45 6.45 0 0 0 1.15-.47.52.52 0 0 0 .22-.46 2.68 2.68 0 0 0-.13-.59c-.1-.49 0-1.07.53-1.2a2 2 0 0 1 .55 0 3.84 3.84 0 0 1 .68.09 7.25 7.25 0 0 1 .91.26.16.16 0 0 0 .11-.31 7.44 7.44 0 0 0-.95-.28 4.55 4.55 0 0 0-.73-.09 2.25 2.25 0 0 0-.64 0 1.22 1.22 0 0 0-.78 1.6 4.24 4.24 0 0 1 .11.45.26.26 0 0 1-.08.26 6.43 6.43 0 0 1-1.08.44 6 6 0 0 0-1.61 1.06 7.79 7.79 0 0 0-1.77 8.24 9.08 9.08 0 0 0 2.54 3.55 13 13 0 0 1 1.57 1.29.63.63 0 0 1 .07.51 9.53 9.53 0 0 1-.35 1c-.05.15-.1.3-.14.46s-.06.15-.07.21a.23.23 0 0 0 0 .12.17.17 0 0 0 .27.08.18.18 0 0 0 .1-.2Zm-96-.88h-3.87a.17.17 0 1 0 0 .34h3.82a.17.17 0 1 0 0-.34Zm77.14-.36c2.32-1.19 4.89-1.86 7.14-3.21a5.29 5.29 0 0 0 1.75-1.68 2.21 2.21 0 0 0 .16-2.24 1.6 1.6 0 0 0-1.58-.86 7.42 7.42 0 0 0-3 1c-1.73.89-3.47 2.26-5.3 3.42.1.41.19.82.28 1.23.11.79.29 1.59.5 2.37Zm-1.23-3.76a15.73 15.73 0 0 0-2.59-6 7.85 7.85 0 0 0-3.12-2.4 4.24 4.24 0 0 0-3.74.11c-2.51 1.41-2.86 4-2 6.25a6.9 6.9 0 0 0 3.5 3.68 6.48 6.48 0 0 1 1.4-1.57 1.17 1.17 0 0 1 1-.26.17.17 0 1 1-.1.32.63.63 0 0 0-.46 0 2.07 2.07 0 0 0-.55.39 7.32 7.32 0 0 0-1 1.2 5.56 5.56 0 0 0 1.72.31 11.16 11.16 0 0 0 5.89-2Zm40.15 1.23a.18.18 0 0 0 .13-.11.14.14 0 0 0 0-.09.16.16 0 0 0-.2-.13l-.19.07-.27.1-1 .32a.17.17 0 0 0-.1.21.16.16 0 0 0 .21.11l1-.33.29-.1a.89.89 0 0 1 .08-.02Zm-12.73.24a1.46 1.46 0 0 0 1-.33 1.14 1.14 0 0 0 .44-.94 1.16 1.16 0 0 0-.41-.9 1.43 1.43 0 0 0-1-.36 1.49 1.49 0 0 0-1 .36 1.21 1.21 0 0 0 0 1.85 1.61 1.61 0 0 0 .97.32Zm12.59-.25a.18.18 0 0 1 0-.18.17.17 0 0 0-.05.18ZM213 93.5a1.24 1.24 0 0 1-.78-.26.81.81 0 0 1-.31-.68.83.83 0 0 1 .3-.65 1.14 1.14 0 0 1 .79-.28 1.1 1.1 0 0 1 .76.28.82.82 0 0 1 .3.65.81.81 0 0 1-.31.68 1.2 1.2 0 0 1-.75.26Zm12.12-1.13a.16.16 0 0 0 .05-.22.18.18 0 0 0-.25 0l-.37.28-.71.53a.17.17 0 1 0 .21.27l.7-.53.37-.28Zm.3-2.29a.16.16 0 0 0 .07-.14.2.2 0 0 0-.07-.14.17.17 0 0 0-.18 0 .15.15 0 0 0-.07.07 1.09 1.09 0 0 0-.06.11l-.15.22a6.94 6.94 0 0 1-.49.68c-.56.7-1.22 1.32-1.83 2a.16.16 0 0 0 0 .23.16.16 0 0 0 .24 0c.61-.65 1.27-1.28 1.84-2 .18-.22.35-.46.51-.7l.15-.24Zm-.42 2.31a.2.2 0 0 1-.11 0 .13.13 0 0 0 .11 0Zm-.11 0a.19.19 0 0 1-.1-.08.14.14 0 0 0 .14.08Zm.12 0ZM110.1 91a1.16 1.16 0 0 1 .28 0h2.73a.17.17 0 0 0 .17-.16.17.17 0 0 0-.17-.17h-2.74a1.19 1.19 0 0 0-.41.08.18.18 0 0 0-.08.23.16.16 0 0 0 .22.02Zm98.65-5.39a1 1 0 0 0 .37.75 1.27 1.27 0 0 0 .89.33 1.21 1.21 0 0 0 1.22-.94 3.08 3.08 0 0 1 .69-1.14 1.71 1.71 0 0 1 1.22-.36 1.75 1.75 0 0 1 1.16.37 1.06 1.06 0 0 1 .43.86.85.85 0 0 1-.13.47 1.88 1.88 0 0 1-.37.43c-.15.14-.41.35-.75.62a10.93 10.93 0 0 0-1 .82 2.83 2.83 0 0 0-.61.84 2.73 2.73 0 0 0-.23 1.14 1.07 1.07 0 0 0 .35.87 1.2 1.2 0 0 0 .83.29 1.18 1.18 0 0 0 .76-.22 1.1 1.1 0 0 0 .39-.67c.06-.23.1-.4.13-.49a1.12 1.12 0 0 1 .11-.25 1.7 1.7 0 0 1 .23-.29 3.77 3.77 0 0 1 .44-.38l1.41-1.16a3.69 3.69 0 0 0 .71-.85 2.28 2.28 0 0 0 .31-1.18 2.55 2.55 0 0 0-.54-1.57 3.51 3.51 0 0 0-1.48-1.13 5.51 5.51 0 0 0-2.18-.4 5.36 5.36 0 0 0-2.33.48 4 4 0 0 0-1.53 1.24 2.62 2.62 0 0 0-.5 1.52Zm-102.59 5h.21l.86-.09c1.34-.1 2.67-.16 4-.17a.17.17 0 0 0 .17-.17.17.17 0 0 0-.17-.16c-1.35 0-2.69.07-4 .17l-.88.09a1.15 1.15 0 0 0-.33 0 .2.2 0 0 0-.12.15.15.15 0 0 0 .12.19.16.16 0 0 0 .14 0Zm102.92-5a2.24 2.24 0 0 1 .48-1.32 3.51 3.51 0 0 1 1.4-1.14 5 5 0 0 1 2.18-.45 5.07 5.07 0 0 1 2.05.38 3.29 3.29 0 0 1 1.35 1 2.27 2.27 0 0 1 .46 1.38 1.88 1.88 0 0 1-.26 1 3.41 3.41 0 0 1-.64.77c-.26.23-.73.61-1.4 1.15a4.29 4.29 0 0 0-.47.41 2.51 2.51 0 0 0-.28.35 2.22 2.22 0 0 0-.14.32c0 .1-.08.27-.14.51a.8.8 0 0 1-.26.48 1 1 0 0 1-.56.15.92.92 0 0 1-.61-.21.77.77 0 0 1-.24-.62 2.33 2.33 0 0 1 .2-1 2.57 2.57 0 0 1 .54-.75 12 12 0 0 1 .94-.8c.36-.28.62-.49.77-.63a2.53 2.53 0 0 0 .43-.5 1.17 1.17 0 0 0 .19-.65 1.4 1.4 0 0 0-.56-1.12 2.09 2.09 0 0 0-1.37-.44 2.06 2.06 0 0 0-1.45.45 3.4 3.4 0 0 0-.77 1.27.91.91 0 0 1-.91.72.92.92 0 0 1-.66-.25.67.67 0 0 1-.27-.46Zm-104.77 3.57c.05.14.31.8.34.85a.15.15 0 0 0 .21.09.16.16 0 0 0 .09-.22l-.33-.84a.2.2 0 0 0-.19-.13.17.17 0 0 0-.14.19.43.43 0 0 0 .02.06Zm-1.15-.35a.15.15 0 0 0-.18-.11.14.14 0 0 0-.13.11.15.15 0 0 0 0 .13 3.48 3.48 0 0 0 .31.4l.6.67a.17.17 0 0 0 .24 0 .17.17 0 0 0 0-.23c-.21-.22-.41-.45-.6-.67Zm122 1.14Zm0 0Zm-122-1a.19.19 0 0 1-.16.03.14.14 0 0 0 .15 0Zm106.3-11.16a.15.15 0 0 0-.18-.09.16.16 0 0 0-.13.08.2.2 0 0 0 0 .15.24.24 0 0 0 .07.09.83.83 0 0 1 .12.08l.24.26c.27.31.52.63.77 1a.16.16 0 0 0 .23 0 .15.15 0 0 0 0-.23c-.26-.32-.51-.64-.78-1a3.58 3.58 0 0 0-.26-.29Zm1.56-.43a.14.14 0 0 0 0-.09.17.17 0 0 0-.21-.1.16.16 0 0 0-.12.13.31.31 0 0 0 0 .16 1.54 1.54 0 0 0 .07.24c.08.33.14.66.22 1a.17.17 0 1 0 .33-.07c-.08-.34-.14-.67-.23-1a2.67 2.67 0 0 0-.08-.27Zm-1.67.66Zm0 0Zm0 0Zm1.55-.53Zm0 0Z" fill="#000000" class="color000 svgShape"/><path fill="#ffffff" fill-rule="evenodd" d="M147 218.38a1.3 1.3 0 0 0-.88-.27c-.48 0-1 .09-1.34.1a.17.17 0 0 0 0 .33c.3 0 .85-.11 1.32-.1a1 1 0 0 1 .66.18.17.17 0 0 0 .24 0 .16.16 0 0 0 0-.24Zm4.4-1.57a1.36 1.36 0 0 0-.7-.19c-.63 0-1.48.11-1.81.11-2.3 0-4.6.15-6.89.37a.17.17 0 0 0-.15.18.17.17 0 0 0 .19.15c2.28-.22 4.56-.33 6.85-.36.29 0 .95-.11 1.52-.12a3.3 3.3 0 0 1 .58 0 .52.52 0 0 1 .2.08.17.17 0 0 0 .24 0 .18.18 0 0 0-.05-.22Zm84.55-5.22h.08a.5.5 0 0 1 .21.1 1.83 1.83 0 0 1 .52.48.5.5 0 0 1 .11.24 1.23 1.23 0 0 1-.38.75 5.32 5.32 0 0 1-1.18.86c-2.59 1.42-5.84 1.83-8.71 2.42a.17.17 0 0 0-.13.19.17.17 0 0 0 .2.13c2.9-.59 6.18-1 8.8-2.46a5 5 0 0 0 1.26-.92 1.46 1.46 0 0 0 .47-1 .66.66 0 0 0-.2-.38 2.15 2.15 0 0 0-.83-.73.41.41 0 0 0-.58.14.16.16 0 0 0 .07.22.17.17 0 0 0 .27-.04ZM228 215a.58.58 0 0 0-.34-.06 5.73 5.73 0 0 0-.66.12l-2.5.38a.16.16 0 0 0-.14.19.16.16 0 0 0 .19.13l2.5-.37c.12 0 .34-.09.55-.11h.22a.16.16 0 0 0 .23 0 .18.18 0 0 0-.05-.28Zm-78.4-14c3.05-.74 6.65-.49 9.77-.7 7-.47 14.08-.84 21.14-.88a102.12 102.12 0 0 1 12.49.47 11.08 11.08 0 0 1 2.95.61 1 1 0 0 1 .32.22.22.22 0 0 1 0 .28 1.77 1.77 0 0 1-.89.69 11.29 11.29 0 0 1-1.86.53 55.36 55.36 0 0 1-7.82 1.24c-5.94.68-11.94 1-17.91 1.41-3.62.24-7.39.29-10.93 1.19a11.28 11.28 0 0 0-1.13.34c-.64.24-.95.53-1 .81a.66.66 0 0 0 .13.59 2.73 2.73 0 0 0 .94.73c1.45.75 3 1.28 4.39 2.17a3.52 3.52 0 0 1 .91.77.92.92 0 0 1 .13 1 2.19 2.19 0 0 1-1.05.93 12.88 12.88 0 0 1-2.25.75c-3.48 1-7.28 1-10.87 1.25a.17.17 0 0 0-.16.18.16.16 0 0 0 .18.15c3.61-.22 7.44-.28 10.94-1.27a12.16 12.16 0 0 0 2.31-.76 2.57 2.57 0 0 0 1.2-1.09 1.24 1.24 0 0 0-.16-1.34 3.86 3.86 0 0 0-1-.85c-1.39-.89-2.95-1.43-4.41-2.19a2.86 2.86 0 0 1-.76-.52.46.46 0 0 1-.15-.41.53.53 0 0 1 .21-.27 2.3 2.3 0 0 1 .61-.31 10.74 10.74 0 0 1 1.1-.34c3.52-.89 7.28-.94 10.87-1.18 6-.4 12-.73 17.93-1.4a59.68 59.68 0 0 0 7.87-1.25 12.77 12.77 0 0 0 1.91-.56 2.09 2.09 0 0 0 1.05-.83c.2-.39 0-.72-.52-1a11.84 11.84 0 0 0-3.06-.64 104.75 104.75 0 0 0-12.53-.48c-7.07.05-14.11.42-21.16.89-3.14.21-6.76 0-9.83.71a.16.16 0 0 0-.12.2.16.16 0 0 0 .22.16Zm-78.18 14.13h3.32a.16.16 0 0 0 .18-.16.17.17 0 0 0-.16-.17h-3.29a.45.45 0 0 0-.31.13.17.17 0 0 0 0 .23.18.18 0 0 0 .26-.03Zm154.37-1.31-1 .23a.16.16 0 0 0-.12.2.16.16 0 0 0 .2.12l1-.23a.16.16 0 1 0-.08-.32Zm-159.2-3.48a.16.16 0 0 0 .21 0 .17.17 0 0 0 0-.24.26.26 0 0 0-.13-.06.7.7 0 0 0-.29 0c-.31 0-.77.19-.89.21a4.43 4.43 0 0 0-2 .9 1.12 1.12 0 0 0-.25 1.43 1.89 1.89 0 0 0 1.15.84 14.39 14.39 0 0 0 2.1.37 55.39 55.39 0 0 0 8.64.41.17.17 0 1 0 0-.34 53.57 53.57 0 0 1-8.59-.4 12.24 12.24 0 0 1-2-.36 1.55 1.55 0 0 1-1-.67.85.85 0 0 1-.1-.58 1.11 1.11 0 0 1 .54-.66 4.67 4.67 0 0 1 1.58-.61c.11 0 .56-.17.86-.21Zm24.66-4.53c1.55-.13 3.47.52 5 .7 3.7.44 7.4.82 11.12.9h4.84a12.84 12.84 0 0 1 1.44-.05 1.75 1.75 0 0 1 .82.22v.14a1.68 1.68 0 0 1-.5.4 12.21 12.21 0 0 0-2.19 1.26.6.6 0 0 0-.2.52.55.55 0 0 0 .21.3 2.23 2.23 0 0 0 .72.29.17.17 0 0 0 .2-.13.17.17 0 0 0-.12-.2 2 2 0 0 1-.54-.19c-.08-.05-.13-.09-.14-.14a.11.11 0 0 1 0-.08.94.94 0 0 1 .1-.14 11.91 11.91 0 0 1 2.12-1.2 2.53 2.53 0 0 0 .61-.5.49.49 0 0 0 .08-.38.44.44 0 0 0-.19-.23 2 2 0 0 0-1-.27 13.58 13.58 0 0 0-1.47 0c-1.61.05-3.21.05-4.82 0-3.72-.09-7.4-.46-11.09-.9-1.56-.18-3.51-.83-5.08-.7a.17.17 0 1 0 0 .33Zm3.88 4.05a1.15 1.15 0 0 1 .52-.25c.36-.11.78-.17 1-.25a.17.17 0 0 0 .12-.2.18.18 0 0 0-.21-.12c-.26.08-.68.14-1 .25a1.56 1.56 0 0 0-.67.33.17.17 0 1 0 .24.24Zm-4-2.19a26.84 26.84 0 0 0 5.66.73.17.17 0 0 0 .18-.15.16.16 0 0 0-.15-.18 25.64 25.64 0 0 1-5.59-.72.17.17 0 1 0-.1.32Zm133.09-3.6a.17.17 0 0 0 .19 0 .18.18 0 0 0 0-.24.3.3 0 0 0-.27-.05 5.71 5.71 0 0 0-.87.3.16.16 0 0 0 .11.31c.08 0 .4-.17.65-.25Zm-10.9-6.33a6.88 6.88 0 0 0 1.57 0c1.09 0 2.2 0 3.3.09a76.65 76.65 0 0 1 10.26 1c.68.13 1.35.27 2 .46a8.13 8.13 0 0 1 1.08.38 2.81 2.81 0 0 1 .8.47.86.86 0 0 1 .3.47.56.56 0 0 1-.16.45 2.07 2.07 0 0 1-.76.49 18.26 18.26 0 0 1-4.85 1c-1.62.22-3.24.44-4.83.78a.16.16 0 0 0-.13.19.16.16 0 0 0 .19.13c1.59-.33 3.2-.55 4.81-.77a18.86 18.86 0 0 0 4.94-1.06c.87-.37 1.18-.86 1.12-1.3a1.1 1.1 0 0 0-.29-.55 2.8 2.8 0 0 0-1-.65 10.58 10.58 0 0 0-1.12-.39 20.07 20.07 0 0 0-2-.46 75.77 75.77 0 0 0-10.31-1c-1.1 0-2.21-.1-3.32-.09-.22 0-.49 0-.77.05a2.22 2.22 0 0 1-.69 0 .16.16 0 0 0-.21.11.17.17 0 0 0 .07.2Zm10.19 4.51a6.46 6.46 0 0 0-1.5.26.17.17 0 0 0-.13.19.17.17 0 0 0 .2.13 6.13 6.13 0 0 1 1.41-.25.18.18 0 0 0 .18-.16.17.17 0 0 0-.16-.17ZM81 201.35a.17.17 0 0 0 .22 0 .17.17 0 0 0 0-.24.27.27 0 0 0-.12-.07.72.72 0 0 0-.27 0 6.1 6.1 0 0 0-.86.15.17.17 0 0 0-.14.19.19.19 0 0 0 .2.14 7 7 0 0 1 .82-.15Zm.14-1.45h-1a29.09 29.09 0 0 0-3.22.36.17.17 0 0 0-.13.2.16.16 0 0 0 .19.13 28.65 28.65 0 0 1 3.18-.36h1.16a.19.19 0 0 0 .08-.07.17.17 0 0 0-.06-.23.16.16 0 0 0-.22-.03Zm-.07.06Zm0 0Zm0 0Zm88.83-79.11a.17.17 0 0 0-.22-.23.18.18 0 0 0-.09.1.26.26 0 0 0 0 .14c0 .21.08.7.08.77.05.95 0 1.9 0 2.85a.17.17 0 0 0 .33 0c0-1 .07-1.92 0-2.88 0 0 0-.28-.06-.5s-.05-.22-.05-.26Zm-23.31-3.09a.15.15 0 0 0 0-.13.17.17 0 0 0-.21-.1.19.19 0 0 0-.13.21 2.72 2.72 0 0 0 .07.5 11.37 11.37 0 0 0 .43 1.62 9.72 9.72 0 0 0 1.65 3.23 3.11 3.11 0 0 0 2.08 1.15c1.6.12 3.22-.83 4.53-1.61a31 31 0 0 1 6.58-3.37c2.29-.7 4.65-.57 6 1.63a10.67 10.67 0 0 1 1 2.47.17.17 0 0 0 .2.12.18.18 0 0 0 .12-.21 11.17 11.17 0 0 0-1.06-2.55c-1.43-2.35-3.93-2.53-6.37-1.78a31.61 31.61 0 0 0-6.65 3.4c-1.26.75-2.8 1.68-4.33 1.57a2.73 2.73 0 0 1-1.86-1 9.47 9.47 0 0 1-1.59-3.11 12.65 12.65 0 0 1-.41-1.58 2.58 2.58 0 0 1-.06-.47Zm25 4.88a.17.17 0 0 0 .05-.23.15.15 0 0 0-.22-.06.63.63 0 0 0-.23.33c-.1.28-.17.7-.22.85a.16.16 0 0 0 .1.21.17.17 0 0 0 .21-.1c.05-.13.11-.46.19-.73a1 1 0 0 1 .08-.21s.04-.07.05-.07Zm-25.11-4.8Z" class="colorfff svgShape"/></g></svg>